<?xml version="1.0" encoding="UTF-8" standalone="no"?>
<!-- Created with Inkscape (http://www.inkscape.org/) -->

<svg
   xmlns:dc="http://purl.org/dc/elements/1.1/"
   xmlns:cc="http://creativecommons.org/ns#"
   xmlns:rdf="http://www.w3.org/1999/02/22-rdf-syntax-ns#"
   xmlns:svg="http://www.w3.org/2000/svg"
   xmlns="http://www.w3.org/2000/svg"
   xmlns:sodipodi="http://sodipodi.sourceforge.net/DTD/sodipodi-0.dtd"
   xmlns:inkscape="http://www.inkscape.org/namespaces/inkscape"
   id="svg2"
   version="1.1"
   inkscape:version="0.48.5 r10040"
   width="326.7825"
   height="392.5"
   xml:space="preserve"
   sodipodi:docname="blue.svg"><metadata
     id="metadata8"><rdf:RDF><cc:Work
         rdf:about=""><dc:format>image/svg+xml</dc:format><dc:type
           rdf:resource="http://purl.org/dc/dcmitype/StillImage" /><dc:title /></cc:Work></rdf:RDF></metadata><defs
     id="defs6"><clipPath
       clipPathUnits="userSpaceOnUse"
       id="clipPath34"><path
         d="m 0,314 261.426,0 0,-314 L 0,0 0,314 z"
         id="path36" /></clipPath><clipPath
       clipPathUnits="userSpaceOnUse"
       id="clipPath94"><path
         d="m 0,314 261.426,0 0,-314 L 0,0 0,314 z"
         id="path96" /></clipPath></defs><sodipodi:namedview
     pagecolor="#ffffff"
     bordercolor="#666666"
     borderopacity="1"
     objecttolerance="10"
     gridtolerance="10"
     guidetolerance="10"
     inkscape:pageopacity="0"
     inkscape:pageshadow="2"
     inkscape:window-width="1215"
     inkscape:window-height="1000"
     id="namedview4"
     showgrid="false"
     inkscape:zoom="2.4050955"
     inkscape:cx="146.93738"
     inkscape:cy="198.03568"
     inkscape:window-x="1985"
     inkscape:window-y="24"
     inkscape:window-maximized="1"
     inkscape:current-layer="g10" /><g
     id="g10"
     inkscape:groupmode="layer"
     inkscape:label="Widgets"
     transform="matrix(1.25,0,0,-1.25,0,392.5)"><text
       transform="matrix(1,0,0,-1,63.2173,70.5498)"
       id="text12"><tspan
         style="fill:#2b2b2a;fill-opacity:1;fill-rule:nonzero;stroke:none;font-family:Gotham HTF Light Condensed;font-variant:normal;font-weight:300;font-stretch:condensed;font-size:26.5568;writing-mode:lr;-inkscape-font-specification:GothamHTF-LightCondensed"
         x="0 10.4368224 20.4221792 31.3104672 38.8525984 47.6960128 52.0778848 60.79117088 68.86443808 79.64649888 89.81775328 98.44871328 109.07143328 113.45330528 124.23536608"
         y="0"
         sodipodi:role="line"
         id="tspan14">GOALS SCORED ON</tspan><tspan
         style="fill:#2b2b2a;fill-opacity:1;fill-rule:nonzero;stroke:none;font-family:Gotham HTF Light Condensed;font-variant:normal;font-weight:300;font-stretch:condensed;font-size:26.5568;writing-mode:lr;-inkscape-font-specification:GothamHTF-LightCondensed"
         x="-9.693232 -1.8324192 9.2152096 17.8461696 22.2280416 28.8937984 39.7820864 49.6877728 57.229904 65.462512 72.5797344 80.4405472 91.222608 101.4735328 109.3343456 119.107248 129.995536 137.5376672"
         y="24.671267"
         sodipodi:role="line"
         id="tspan16">THE TABLE-FOOTBALL</tspan></text>
<text
       transform="matrix(1,0,0,-1,106.9399,255.6631)"
       id="text18"><tspan
         style="fill:#2b2b2a;fill-opacity:1;fill-rule:nonzero;stroke:none;font-family:Idlewild Bold;font-variant:normal;font-weight:bold;font-stretch:normal;font-size:8.4807;writing-mode:lr;-inkscape-font-specification:Idlewild-Bold"
         x="0 9.7867278 20.9642904 31.1072076 40.8176091"
         y="0"
         sodipodi:role="line"
         id="tspan20">TODAY</tspan></text>
<text
       transform="scale(1,-1)"
       id="red"
       x="178"
       y="-118.6729"
       text-anchor="middle"
       style="font-size:56.93790054px;font-variant:normal;font-weight:900;font-stretch:normal;writing-mode:lr-tb;fill:#2b2b2a;fill-opacity:1;fill-rule:nonzero;stroke:none;font-family:TSTAR PRO Headline;-inkscape-font-specification:TSTARPRO-Headline">0</text>
<g
       id="g26"
       transform="translate(120.4824,108.722)"><path
         d="m 0,0 -64.089,0 0,89.617 22.035,0 10.013,-14.012 10.516,14.012 L 0,89.617 0,0 z"
         style="fill:none;stroke:#2b2b2a;stroke-opacity:1;stroke-width:1.801;stroke-linecap:butt;stroke-linejoin:miter;stroke-miterlimit:10;stroke-dasharray:none"
         id="path28" /></g><g
       id="g30"><g
         id="g32"
         clip-path="url(#clipPath34)"><g
           id="g38"
           transform="translate(78.4282,198.3392)"><path
             d="m 0,0 0,9.018 c -4.509,0 -6.714,6.957 -6.714,14.47 l 0,16.383 c 0,18.076 32.446,17.57 32.446,0 l 0,-9.877 3.555,-6.506 -3.679,0 0,-13.97 -5.88,0 0,-9.518"
             style="fill:none;stroke:#2b2b2a;stroke-opacity:1;stroke-width:1.801;stroke-linecap:butt;stroke-linejoin:miter;stroke-miterlimit:10;stroke-dasharray:none"
             id="path40" /></g><g
           id="g42"
           transform="translate(56.3931,194.8353)"><path
             d="m 0,0 c -3.507,0 -6.014,-2.004 -6.014,-6.506 l 0,-23.537 c 0,-6.281 3.513,-6.711 6.014,-6.711"
             style="fill:none;stroke:#2b2b2a;stroke-opacity:1;stroke-width:1.801;stroke-linecap:butt;stroke-linejoin:miter;stroke-miterlimit:10;stroke-dasharray:none"
             id="path44" /></g><g
           id="g46"
           transform="translate(120.4824,158.0814)"><path
             d="m 0,0 c 3.51,0 6.018,2.006 6.018,6.508 l 0,23.543 c 0,6.267 -3.517,6.703 -6.018,6.703"
             style="fill:none;stroke:#2b2b2a;stroke-opacity:1;stroke-width:1.801;stroke-linecap:butt;stroke-linejoin:miter;stroke-miterlimit:10;stroke-dasharray:none"
             id="path48" /></g><g
           id="g50"
           transform="translate(73.0679,215.7709)"><path
             d="m 0,0 c 3.088,0.611 8.364,0.555 8.364,3.656 0,6.078 1.442,9.258 5.694,9.258 0.848,2.975 1.316,4.545 1.316,8.955 l 15.594,0 c 0,16.559 -32.322,18.992 -32.322,0.57 l 0,-16.382 C -1.354,3.867 0,0 0,0"
             style="fill:#2b2b2a;fill-opacity:1;fill-rule:nonzero;stroke:none"
             id="path52" /></g><g
           id="g54"
           transform="translate(144.6524,108.722)"><path
             d="m 0,0 64.089,0 0,89.617 -22.031,0 L 32.048,75.605 21.525,89.617 0,89.617 0,0 z"
             style="fill:none;stroke:#2b2b2a;stroke-opacity:1;stroke-width:1.801;stroke-linecap:butt;stroke-linejoin:miter;stroke-miterlimit:10;stroke-dasharray:none"
             id="path56" /></g><g
           id="g58"
           transform="translate(166.979,198.3392)"><path
             d="m 0,0 0,9.518 -5.881,0 0,13.97 -3.672,0 3.549,6.506 c 0,3.461 -0.116,6.781 -0.116,6.781 l 0,5.846 c 0,18.084 32.453,17.578 32.453,0 l 0,-5.846"
             style="fill:none;stroke:#2b2b2a;stroke-opacity:1;stroke-width:1.801;stroke-linecap:butt;stroke-linejoin:miter;stroke-miterlimit:10;stroke-dasharray:none"
             id="path60" /></g><g
           id="g62"
           transform="translate(186.7105,198.3392)"><path
             d="m 0,0 0,9.018 c 4.516,0 6.714,6.957 6.714,14.47 l 0,16.383"
             style="fill:none;stroke:#2b2b2a;stroke-opacity:1;stroke-width:1.801;stroke-linecap:butt;stroke-linejoin:miter;stroke-miterlimit:10;stroke-dasharray:none"
             id="path64" /></g><g
           id="g66"
           transform="translate(208.7417,194.8353)"><path
             d="m 0,0 c 3.51,0 6.014,-2.004 6.014,-6.506 l 0,-23.537 c 0,-6.281 -3.513,-6.711 -6.014,-6.711"
             style="fill:none;stroke:#2b2b2a;stroke-opacity:1;stroke-width:1.801;stroke-linecap:butt;stroke-linejoin:miter;stroke-miterlimit:10;stroke-dasharray:none"
             id="path68" /></g><g
           id="g70"
           transform="translate(144.6524,158.0814)"><path
             d="m 0,0 c -3.514,0 -6.014,2.006 -6.014,6.508 l 0,23.543 c 0,6.267 3.516,6.703 6.014,6.703"
             style="fill:none;stroke:#2b2b2a;stroke-opacity:1;stroke-width:1.801;stroke-linecap:butt;stroke-linejoin:miter;stroke-miterlimit:10;stroke-dasharray:none"
             id="path72" /></g><g
           id="g74"
           transform="translate(192.5029,214.0052)"><path
             d="m 0,0 c -6.151,0 -8.793,4.367 -8.793,6.998 0,2.631 -1.582,6.719 -5.775,6.719 l 0,7.392 7.284,5.178 0,12.344"
             style="fill:none;stroke:#2b2b2a;stroke-opacity:1;stroke-width:1.801;stroke-linecap:butt;stroke-linejoin:miter;stroke-miterlimit:10;stroke-dasharray:none"
             id="path76" /></g><g
           id="g78"
           transform="translate(126.5005,187.1048)"><path
             d="M 0,0 11.673,0"
             style="fill:none;stroke:#2b2b2a;stroke-opacity:1;stroke-width:1.801;stroke-linecap:butt;stroke-linejoin:miter;stroke-miterlimit:10;stroke-dasharray:none"
             id="path80" /></g><g
           id="g82"
           transform="translate(126.5005,167.3177)"><path
             d="M 0,0 11.673,0"
             style="fill:none;stroke:#2b2b2a;stroke-opacity:1;stroke-width:1.801;stroke-linecap:butt;stroke-linejoin:miter;stroke-miterlimit:10;stroke-dasharray:none"
             id="path84" /></g></g></g><text
       transform="scale(1,-1)"
       id="blue"
       x="88"
       y="-118.6729"
       text-anchor="middle"
       style="font-size:56.93790054px;font-variant:normal;font-weight:900;font-stretch:normal;writing-mode:lr-tb;fill:#2b2b2a;fill-opacity:1;fill-rule:nonzero;stroke:none;font-family:TSTAR PRO Headline;-inkscape-font-specification:TSTARPRO-Headline">0</text>
<g
       id="g90"><g
         id="g92"
         clip-path="url(#clipPath94)"><g
           id="g98"
           transform="translate(161.7349,245.722)"><path
             d="M 0,0 C 9.957,0 16.035,2.518 18.736,8.609"
             style="fill:none;stroke:#2b2b2a;stroke-opacity:1;stroke-width:1.801;stroke-linecap:butt;stroke-linejoin:miter;stroke-miterlimit:10;stroke-dasharray:none"
             id="path100" /></g></g></g><text
       transform="scale(1,-1)"
       id="text102"
       x="60"
       y="-166.2549"
       style="font-size:21.60930061px;font-variant:normal;font-weight:500;font-stretch:normal;writing-mode:lr-tb;fill:#2b2b2a;fill-opacity:1;fill-rule:nonzero;stroke:none;font-family:Knockout HTF26-JuniorFlyweight;-inkscape-font-specification:Knockout-HTF26-JuniorFlyweight">BLUE </text>
<text
       id="text102-9"
       x="154.71358"
       y="-166.24034"
       style="font-size:21.60930061px;font-variant:normal;font-weight:500;font-stretch:normal;writing-mode:lr-tb;fill:#2b2b2a;fill-opacity:1;fill-rule:nonzero;stroke:none;font-family:Knockout HTF26-JuniorFlyweight;-inkscape-font-specification:Knockout-HTF26-JuniorFlyweight"
       transform="scale(1,-1)">RED</text>
</g></svg>