<?xml version="1.0" encoding="UTF-8" standalone="no"?>
<!-- Created with Inkscape (http://www.inkscape.org/) -->

<svg
   xmlns:dc="http://purl.org/dc/elements/1.1/"
   xmlns:cc="http://creativecommons.org/ns#"
   xmlns:rdf="http://www.w3.org/1999/02/22-rdf-syntax-ns#"
   xmlns:svg="http://www.w3.org/2000/svg"
   xmlns="http://www.w3.org/2000/svg"
   version="1.1"
   width="637.46753"
   height="373.10626"
   id="svg2"
   xml:space="preserve"><metadata
     id="metadata8"><rdf:RDF><cc:Work
         rdf:about=""><dc:format>image/svg+xml</dc:format><dc:type
           rdf:resource="http://purl.org/dc/dcmitype/StillImage" /><dc:title></dc:title></cc:Work></rdf:RDF></metadata><defs
     id="defs6"><clipPath
       id="clipPath32"><path
         d="m 0,298.485 509.974,0 L 509.974,0 0,0 0,298.485 z"
         id="path34" /></clipPath></defs><g
     transform="matrix(1.25,0,0,-1.25,0,373.10625)"
     id="g10"><text
       transform="matrix(1,0,0,-1,242.498,249.2271)"
       id="text12"><tspan
         x="0 9.7867279 20.964291 31.107208 40.817608"
         y="0"
         id="tspan14"
         style="font-size:8.48069954px;font-variant:normal;font-weight:bold;font-stretch:normal;writing-mode:lr-tb;fill:#2b2b2a;fill-opacity:1;fill-rule:nonzero;stroke:none;font-family:Idlewild Bold;-inkscape-font-specification:Idlewild-Bold">TODAY</tspan></text>
<text
       x="267"
       y="-195.95294"
       text-anchor="middle"
       transform="scale(1,-1)"
       id="value"
       style="font-size:56.93790054px;font-variant:normal;font-weight:900;font-stretch:normal;writing-mode:lr-tb;fill:#2b2b2a;fill-opacity:1;fill-rule:nonzero;stroke:none;font-family:TSTAR PRO Headline;-inkscape-font-specification:TSTARPRO-Headline">0</text>
<text
       transform="matrix(1,0,0,-1,203.2505,162.77)"
       id="text20"><tspan
         x="0 8.073267 18.855328 26.981709 35.108089 43.739048 52.37001 61.213425 65.595299 75.261971 86.044029 96.905762 107.07702 115.70798"
         y="0"
         id="tspan22"
         style="font-size:26.55680084px;font-variant:normal;font-weight:300;font-stretch:condensed;writing-mode:lr-tb;fill:#2b2b2a;fill-opacity:1;fill-rule:nonzero;stroke:none;font-family:Gotham HTF Light Condensed;-inkscape-font-specification:GothamHTF-LightCondensed">COFFEES POURED</tspan></text>
<g
       transform="translate(208.1825,44.3761)"
       id="g24"><path
         d="m 0,0 -49.792,0 -5.026,83.33 59.841,0 L 0,0 z"
         id="path26"
         style="fill:none;stroke:#2b2b2a;stroke-width:1.801;stroke-linecap:butt;stroke-linejoin:miter;stroke-miterlimit:10;stroke-opacity:1;stroke-dasharray:none" /></g><g
       id="g28"><g
         clip-path="url(#clipPath32)"
         id="g30"><g
           transform="translate(210.1908,77.7608)"
           id="g36"><path
             d="m 0,0 c 8.026,0 14.54,6.51 14.54,14.54 0,8.033 -5.842,14.541 -12.528,14.541"
             id="path38"
             style="fill:none;stroke:#2b2b2a;stroke-width:1.801;stroke-linecap:butt;stroke-linejoin:miter;stroke-miterlimit:10;stroke-opacity:1;stroke-dasharray:none" /></g><g
           transform="translate(290.8954,44.3761)"
           id="g40"><path
             d="m 0,0 -49.793,0 -5.025,83.33 59.84,0 L 0,0 z"
             id="path42"
             style="fill:none;stroke:#2b2b2a;stroke-width:1.801;stroke-linecap:butt;stroke-linejoin:miter;stroke-miterlimit:10;stroke-opacity:1;stroke-dasharray:none" /></g><g
           transform="translate(292.9032,77.7608)"
           id="g44"><path
             d="m 0,0 c 8.026,0 14.54,6.51 14.54,14.54 0,8.033 -5.842,14.541 -12.528,14.541"
             id="path46"
             style="fill:none;stroke:#2b2b2a;stroke-width:1.801;stroke-linecap:butt;stroke-linejoin:miter;stroke-miterlimit:10;stroke-opacity:1;stroke-dasharray:none" /></g><g
           transform="translate(373.0272,44.3761)"
           id="g48"><path
             d="m 0,0 -49.792,0 -5.026,83.33 59.841,0 L 0,0 z"
             id="path50"
             style="fill:none;stroke:#2b2b2a;stroke-width:1.801;stroke-linecap:butt;stroke-linejoin:miter;stroke-miterlimit:10;stroke-opacity:1;stroke-dasharray:none" /></g><g
           transform="translate(375.036,77.7608)"
           id="g52"><path
             d="m 0,0 c 8.025,0 14.539,6.51 14.539,14.54 0,8.033 -5.842,14.541 -12.527,14.541"
             id="path54"
             style="fill:none;stroke:#2b2b2a;stroke-width:1.801;stroke-linecap:butt;stroke-linejoin:miter;stroke-miterlimit:10;stroke-opacity:1;stroke-dasharray:none" /></g><g
           transform="translate(455.1591,44.3761)"
           id="g56"><path
             d="m 0,0 -49.791,0 -5.026,83.33 59.84,0 L 0,0 z"
             id="path58"
             style="fill:none;stroke:#2b2b2a;stroke-width:1.801;stroke-linecap:butt;stroke-linejoin:miter;stroke-miterlimit:10;stroke-opacity:1;stroke-dasharray:none" /></g><g
           transform="translate(471.7079,92.3009)"
           id="g60"><path
             d="M 0,0 C 0,8.033 -5.842,14.541 -12.528,14.541"
             id="path62"
             style="fill:none;stroke:#2b2b2a;stroke-width:1.801;stroke-linecap:butt;stroke-linejoin:miter;stroke-miterlimit:10;stroke-opacity:1;stroke-dasharray:none" /></g><g
           transform="translate(457.1678,77.7608)"
           id="g64"><path
             d="M 0,0 C 8.026,0 14.54,6.51 14.54,14.54"
             id="path66"
             style="fill:none;stroke:#2b2b2a;stroke-width:1.801;stroke-linecap:butt;stroke-linejoin:miter;stroke-miterlimit:10;stroke-opacity:1;stroke-dasharray:none" /></g><g
           transform="translate(125.9447,44.3761)"
           id="g68"><path
             d="m 0,0 -49.792,0 -5.026,83.33 59.84,0 L 0,0 z"
             id="path70"
             style="fill:none;stroke:#2b2b2a;stroke-width:1.801;stroke-linecap:butt;stroke-linejoin:miter;stroke-miterlimit:10;stroke-opacity:1;stroke-dasharray:none" /></g><g
           transform="translate(127.953,77.7608)"
           id="g72"><path
             d="m 0,0 c 8.026,0 14.54,6.51 14.54,14.54 0,8.033 -5.842,14.541 -12.528,14.541"
             id="path74"
             style="fill:none;stroke:#2b2b2a;stroke-width:1.801;stroke-linecap:butt;stroke-linejoin:miter;stroke-miterlimit:10;stroke-opacity:1;stroke-dasharray:none" /></g><g
           transform="translate(77.1024,85.5739)"
           id="g76"><path
             d="m 0,0 2.37,-38.254 42.99,0 L 47.596,0 0,0 z"
             id="path78"
             style="fill:#2b2b2a;fill-opacity:1;fill-rule:nonzero;stroke:none" /></g><g
           transform="translate(158.4865,105.5759)"
           id="g80"><path
             d="m 0,0 3.37,-58.256 42.991,0 L 49.596,0 0,0 z"
             id="path82"
             style="fill:#2b2b2a;fill-opacity:1;fill-rule:nonzero;stroke:none" /></g><g
           transform="translate(242.1994,85.5739)"
           id="g84"><path
             d="m 0,0 2.37,-38.254 42.99,0 L 47.596,0 0,0 z"
             id="path86"
             style="fill:#2b2b2a;fill-opacity:1;fill-rule:nonzero;stroke:none" /></g></g></g></g></svg>