<?xml version="1.0" encoding="UTF-8" standalone="no"?>
<!-- Created with Inkscape (http://www.inkscape.org/) -->

<svg
   xmlns:dc="http://purl.org/dc/elements/1.1/"
   xmlns:cc="http://creativecommons.org/ns#"
   xmlns:rdf="http://www.w3.org/1999/02/22-rdf-syntax-ns#"
   xmlns:svg="http://www.w3.org/2000/svg"
   xmlns="http://www.w3.org/2000/svg"
   version="1.1"
   width="224.7675"
   height="338.13501"
   id="svg2"
   xml:space="preserve"><metadata
     id="metadata8"><rdf:RDF><cc:Work
         rdf:about=""><dc:format>image/svg+xml</dc:format><dc:type
           rdf:resource="http://purl.org/dc/dcmitype/StillImage" /><dc:title></dc:title></cc:Work></rdf:RDF></metadata><defs
     id="defs6"><clipPath
       id="clipPath38"><path
         d="m 0,270.508 179.814,0 L 179.814,0 0,0 0,270.508 z"
         id="path40" /></clipPath></defs><g
     transform="matrix(1.25,0,0,-1.25,0,338.135)"
     id="g10"><text
       transform="matrix(1,0,0,-1,69.248,226.0552)"
       id="text12"><tspan
         x="0 11.084275 21.965014"
         y="0"
         id="tspan14"
         style="font-size:8.48069954px;font-variant:normal;font-weight:bold;font-stretch:normal;writing-mode:lr-tb;fill:#1d1d1d;fill-opacity:1;fill-rule:nonzero;stroke:none;font-family:Idlewild Bold;-inkscape-font-specification:Idlewild-Bold">NOW</tspan></text>
<text
       x="87"
       y="-173.21025"
       text-anchor="middle"
       transform="scale(1,-1)"
       id="value"
       style="font-size:56.93790054px;font-variant:normal;font-weight:900;font-stretch:normal;writing-mode:lr-tb;fill:#1d1d1d;fill-opacity:1;fill-rule:nonzero;stroke:none;font-family:TSTAR PRO Headline;-inkscape-font-specification:TSTARPRO-Headline">0</text>
<text
       transform="matrix(1,0,0,-1,45.4814,139.5942)"
       id="text20"><tspan
         x="0 8.073267 18.855328 30.009184 41.16304 49.528431 58.265617 66.126434 74.757393"
         y="0"
         id="tspan22"
         style="font-size:26.55680084px;font-variant:normal;font-weight:300;font-stretch:condensed;writing-mode:lr-tb;fill:#1d1d1d;fill-opacity:1;fill-rule:nonzero;stroke:none;font-family:Gotham HTF Light Condensed;-inkscape-font-specification:GothamHTF-LightCondensed">CONNECTED</tspan><tspan
         x="-1.1153857 6.9578815 17.739943 30.434093 40.100769 50.962498 58.823311 67.454269 77.625526"
         y="24.671267"
         id="tspan24"
         style="font-size:26.55680084px;font-variant:normal;font-weight:300;font-stretch:condensed;writing-mode:lr-tb;fill:#1d1d1d;fill-opacity:1;fill-rule:nonzero;stroke:none;font-family:Gotham HTF Light Condensed;-inkscape-font-specification:GothamHTF-LightCondensed">COMPUTERS</tspan></text>
<g
       transform="translate(72.7296,78.3543)"
       id="g26"><path
         d="M 0,0 0,-7.559"
         id="path28"
         style="fill:none;stroke:#1d1d1d;stroke-width:1.801;stroke-linecap:butt;stroke-linejoin:miter;stroke-miterlimit:10;stroke-opacity:1;stroke-dasharray:none" /></g><g
       transform="translate(103.8664,78.3543)"
       id="g30"><path
         d="M 0,0 0,-7.559"
         id="path32"
         style="fill:none;stroke:#1d1d1d;stroke-width:1.801;stroke-linecap:butt;stroke-linejoin:miter;stroke-miterlimit:10;stroke-opacity:1;stroke-dasharray:none" /></g><g
       id="g34"><g
         clip-path="url(#clipPath38)"
         id="g36"><g
           transform="translate(67.8263,51.0188)"
           id="g42"><path
             d="M 0,0 C 10.383,-12.687 31.729,-10.959 40.946,0"
             id="path44"
             style="fill:none;stroke:#1d1d1d;stroke-width:1.801;stroke-linecap:butt;stroke-linejoin:miter;stroke-miterlimit:10;stroke-opacity:1;stroke-dasharray:none" /></g><g
           transform="translate(94.4855,95.8711)"
           id="g46"><path
             d="m 0,0 c -12.939,-15.5 -12.574,-35.275 -12.574,-35.275 l 7.574,0 c -0.5,-15 7.894,-27.687 7.894,-27.687"
             id="path48"
             style="fill:none;stroke:#1d1d1d;stroke-width:2;stroke-linecap:butt;stroke-linejoin:miter;stroke-miterlimit:10;stroke-opacity:1;stroke-dasharray:none" /></g><path
           d="m 124.94,32.596 -73,0 0,63 73,0 0,-63 z"
           id="path50"
           style="fill:none;stroke:#1d1d1d;stroke-width:2;stroke-linecap:butt;stroke-linejoin:miter;stroke-miterlimit:10;stroke-opacity:1;stroke-dasharray:none" /></g></g></g></svg>