<?xml version="1.0" encoding="UTF-8" standalone="no"?>
<!-- Created with Inkscape (http://www.inkscape.org/) -->

<svg
   xmlns:dc="http://purl.org/dc/elements/1.1/"
   xmlns:cc="http://creativecommons.org/ns#"
   xmlns:rdf="http://www.w3.org/1999/02/22-rdf-syntax-ns#"
   xmlns:svg="http://www.w3.org/2000/svg"
   xmlns="http://www.w3.org/2000/svg"
   version="1.1"
   width="413.77124"
   height="386.23126"
   id="svg2"
   xml:space="preserve"><metadata
     id="metadata8"><rdf:RDF><cc:Work
         rdf:about=""><dc:format>image/svg+xml</dc:format><dc:type
           rdf:resource="http://purl.org/dc/dcmitype/StillImage" /><dc:title></dc:title></cc:Work></rdf:RDF></metadata><defs
     id="defs6" /><g
     transform="matrix(1.25,0,0,-1.25,0,386.23125)"
     id="g10"><text
       transform="matrix(1,0,0,-1,149.2192,259.7959)"
       id="text12"><tspan
         x="0 9.7867279 20.964291 31.107208 40.817608"
         y="0"
         id="tspan14"
         style="font-size:8.48069954px;font-variant:normal;font-weight:bold;font-stretch:normal;writing-mode:lr-tb;fill:#1d1d1d;fill-opacity:1;fill-rule:nonzero;stroke:none;font-family:Idlewild Bold;-inkscape-font-specification:Idlewild-Bold">TODAY</tspan></text>
<text
       x="176"
       y="-207.46703"
       text-anchor="middle"
       transform="scale(1,-1)"
       id="value"
       style="font-size:56.93790054px;font-variant:normal;font-weight:900;font-stretch:normal;writing-mode:lr-tb;fill:#1d1d1d;fill-opacity:1;fill-rule:nonzero;stroke:none;font-family:TSTAR PRO Headline;-inkscape-font-specification:TSTARPRO-Headline">0</text>
<text
       transform="matrix(1,0,0,-1,71.6768,173.3389)"
       id="text20"><tspan
         x="0 7.8608127 12.375469 25.06962 33.700581 42.543995 46.925865 59.620014 70.508301 75.022957 86.176819 90.558685 101.18141 111.96347 122.74553 132.91678 141.76019 146.14207 156.92413 166.59081 175.22177 186.37563 195.00658"
         y="0"
         id="tspan22"
         style="font-size:26.55680084px;font-variant:normal;font-weight:300;font-stretch:condensed;writing-mode:lr-tb;fill:#1d1d1d;fill-opacity:1;fill-rule:nonzero;stroke:none;font-family:Gotham HTF Light Condensed;-inkscape-font-specification:GothamHTF-LightCondensed">TIMES MAIN DOORS OPENED</tspan></text>
<g
       transform="translate(178.1889,100.7641)"
       id="g24"><path
         d="M 0,0 0,-13.872"
         id="path26"
         style="fill:none;stroke:#1d1d1d;stroke-width:1.801;stroke-linecap:butt;stroke-linejoin:miter;stroke-miterlimit:10;stroke-opacity:1;stroke-dasharray:none" /></g><g
       transform="translate(170.9438,140.3452)"
       id="g28"><path
         d="M 0,0 -8.269,13.872"
         id="path30"
         style="fill:none;stroke:#1d1d1d;stroke-width:1.801;stroke-linecap:butt;stroke-linejoin:miter;stroke-miterlimit:10;stroke-opacity:1;stroke-dasharray:none" /></g><g
       transform="translate(162.6748,134.226)"
       id="g32"><path
         d="M 0,0 -24.806,6.119"
         id="path34"
         style="fill:none;stroke:#1d1d1d;stroke-width:1.801;stroke-linecap:butt;stroke-linejoin:miter;stroke-miterlimit:10;stroke-opacity:1;stroke-dasharray:none" /></g><g
       transform="translate(162.6748,123.6186)"
       id="g36"><path
         d="M 0,0 -24.806,-1.64"
         id="path38"
         style="fill:none;stroke:#1d1d1d;stroke-width:1.801;stroke-linecap:butt;stroke-linejoin:miter;stroke-miterlimit:10;stroke-opacity:1;stroke-dasharray:none" /></g><g
       transform="translate(156.7695,143.8344)"
       id="g40"><path
         d="m 0,0 53.942,0 -39.768,-9.608 0,-79.164 39.768,-6.169 L 0,-94.941 0,0 z"
         id="path42"
         style="fill:#1d1d1d;fill-opacity:1;fill-rule:nonzero;stroke:none" /></g><g
       transform="translate(156.7695,143.8344)"
       id="g44"><path
         d="m 0,0 53.942,0 -39.768,-9.608 0,-79.164 39.768,-6.169 L 0,-94.941 0,0 z"
         id="path46"
         style="fill:none;stroke:#1d1d1d;stroke-width:1.801;stroke-linecap:butt;stroke-linejoin:round;stroke-miterlimit:10;stroke-opacity:1;stroke-dasharray:none" /></g></g></svg>