<?xml version="1.0" encoding="UTF-8" standalone="no"?>
<!-- Created with Inkscape (http://www.inkscape.org/) -->

<svg
   xmlns:dc="http://purl.org/dc/elements/1.1/"
   xmlns:cc="http://creativecommons.org/ns#"
   xmlns:rdf="http://www.w3.org/1999/02/22-rdf-syntax-ns#"
   xmlns:svg="http://www.w3.org/2000/svg"
   xmlns="http://www.w3.org/2000/svg"
   version="1.2"
   width="285"
   height="402.5"
   id="svg2"
   xml:space="preserve"><metadata
     id="metadata8"><rdf:RDF><cc:Work
         rdf:about=""><dc:format>image/svg+xml</dc:format><dc:type
           rdf:resource="http://purl.org/dc/dcmitype/StillImage" /><dc:title></dc:title></cc:Work></rdf:RDF></metadata><defs
     id="defs6"><clipPath
       id="clipPath32"><path
         d="M 0,322 228,322 228,0 0,0 0,322 z"
         id="path34" /></clipPath></defs><g
     transform="matrix(1.25,0,0,-1.25,0,402.5)"
     id="g10"><text
       transform="matrix(1,0,0,-1,90.1631,258.5415)"
       id="text12"><tspan
         x="0 9.7867279 20.964291 31.107208 40.817608"
         y="0"
         id="tspan14"
         style="font-size:8.48069954px;font-variant:normal;font-weight:bold;font-stretch:normal;writing-mode:lr-tb;fill:#2b2b2a;fill-opacity:1;fill-rule:nonzero;stroke:none;font-family:Idlewild Bold;-inkscape-font-specification:Idlewild-Bold">TODAY</tspan></text>
<text
       x="115"
       y="-204.4599"
       text-anchor="middle"
       transform="scale(1,-1)"
       id="value"
       style="font-size:56.93790054px;font-variant:normal;font-weight:900;font-stretch:normal;writing-mode:lr-tb;fill:#2b2b2a;fill-opacity:1;fill-rule:nonzero;stroke:none;font-family:TSTAR PRO Headline;-inkscape-font-specification:TSTARPRO-Headline">0</text>
<text
       transform="matrix(1,0,0,-1,52.9199,172.0806)"
       id="text20"><tspan
         x="0 7.3296766 18.111738 22.626394 30.168526 38.799484 46.39473 55.238144 59.620014 67.746399 75.022957 85.884689 94.728104 105.77573 114.40669"
         y="0"
         id="tspan22"
         style="font-size:26.55680084px;font-variant:normal;font-weight:300;font-stretch:condensed;writing-mode:lr-tb;fill:#2b2b2a;fill-opacity:1;fill-rule:nonzero;stroke:none;font-family:Gotham HTF Light Condensed;-inkscape-font-specification:GothamHTF-LightCondensed">TOILETS FLUSHED</tspan></text>
<g
       transform="translate(129,65)"
       id="g24"><path
         d="M 0,0 -25,0 -25,5.965 -12.5,3.521 0,5.965 0,0 z"
         id="path26"
         style="fill:#2b2b2a;fill-opacity:1;fill-rule:nonzero;stroke:none" /></g><g
       id="g28"><g
         clip-path="url(#clipPath32)"
         id="g30"><g
           transform="translate(116.5,74.9653)"
           id="g36"><path
             d="m 0,0 c -8.588,0 -12.333,-2.478 -12.333,-3.889 0,-1.411 5.521,-3.889 12.333,-3.889 6.811,0 12.333,2.478 12.333,3.889 C 12.333,-2.478 10.366,0 0,0 m 0,-2.13 c 6.236,0 8.744,-0.926 9.696,-1.497 C 8.164,-4.454 4.588,-5.648 0,-5.648 c -4.34,0 -7.775,1.068 -9.43,1.884 1.334,0.702 4.22,1.634 9.43,1.634"
             id="path38"
             style="fill:#2b2b2a;fill-opacity:1;fill-rule:nonzero;stroke:none" /></g><g
           transform="translate(128.8335,65.0766)"
           id="g40"><path
             d="m 0,0 c 0,-1.412 -1.967,-3.889 -12.333,-3.889 -10.367,0 -12.334,2.477 -12.334,3.889 0,1.411 5.522,-0.111 12.334,-0.111 C -5.522,-0.111 0,1.411 0,0"
             id="path42"
             style="fill:#2b2b2a;fill-opacity:1;fill-rule:nonzero;stroke:none" /></g><g
           transform="translate(192,43)"
           id="g44"><path
             d="M 0,0 -147,0"
             id="path46"
             style="fill:#ffffff;fill-opacity:1;fill-rule:nonzero;stroke:#2b2b2a;stroke-width:2;stroke-linecap:butt;stroke-linejoin:miter;stroke-miterlimit:10;stroke-opacity:1;stroke-dasharray:none" /></g><g
           transform="translate(113,43)"
           id="g48"><path
             d="M 0,0 0,25 7,25 7,0"
             id="path50"
             style="fill:none;stroke:#2b2b2a;stroke-width:2;stroke-linecap:butt;stroke-linejoin:miter;stroke-miterlimit:10;stroke-opacity:1;stroke-dasharray:none" /></g><g
           transform="translate(121.2397,112.124)"
           id="g52"><path
             d="m 0,0 0,-27.475 c 0,-6.408 -7.584,-6.838 -7.584,0 l 0,15.004 -10.224,-0.07 0,18.057 c 0,5.767 6.13,6.697 7.372,1.863"
             id="path54"
             style="fill:none;stroke:#2b2b2a;stroke-width:1.801;stroke-linecap:butt;stroke-linejoin:miter;stroke-miterlimit:10;stroke-opacity:1;stroke-dasharray:none" /></g><g
           transform="translate(103.4146,117.6396)"
           id="g56"><path
             d="m 0,0 c 0,6.838 -7.263,6.422 -7.263,0 l 0,-18.057 9.655,0"
             id="path58"
             style="fill:none;stroke:#2b2b2a;stroke-width:1.801;stroke-linecap:butt;stroke-linejoin:miter;stroke-miterlimit:10;stroke-opacity:1;stroke-dasharray:none" /></g><g
           transform="translate(96.1265,117.6396)"
           id="g60"><path
             d="m 0,0 c 0,6.838 -7.263,6.422 -7.263,0 l 0,-14.301 7.288,0"
             id="path62"
             style="fill:none;stroke:#2b2b2a;stroke-width:1.801;stroke-linecap:butt;stroke-linejoin:miter;stroke-miterlimit:10;stroke-opacity:1;stroke-dasharray:none" /></g><g
           transform="translate(92.6128,122.6064)"
           id="g64"><path
             d="m 0,0 0,18.852 25.891,0 0,-6.782 c 0,0 6.83,0.817 6.83,-4.207 l 0,-18.345 -17.073,0 c 0,5.683 2.016,7.359 6.56,7.359 l 2.627,0"
             id="path66"
             style="fill:none;stroke:#2b2b2a;stroke-width:1.801;stroke-linecap:butt;stroke-linejoin:miter;stroke-miterlimit:10;stroke-opacity:1;stroke-dasharray:none" /></g><g
           transform="translate(103.4321,134.6767)"
           id="g68"><path
             d="M 0,0 C 0,-14.893 14.016,-15.193 14.016,-15.193"
             id="path70"
             style="fill:none;stroke:#2b2b2a;stroke-width:1.801;stroke-linecap:butt;stroke-linejoin:miter;stroke-miterlimit:10;stroke-opacity:1;stroke-dasharray:none" /></g><g
           transform="translate(92.6128,141.458)"
           id="g72"><path
             d="m 0,0 0,6.211 31.078,0 c 0,-2.074 0,-8.701 -5.187,-8.701 L 25.891,0 0,0 z"
             id="path74"
             style="fill:#2b2b2a;fill-opacity:1;fill-rule:nonzero;stroke:none" /></g><g
           transform="translate(92.6128,141.458)"
           id="g76"><path
             d="m 0,0 0,6.211 31.078,0 c 0,-2.074 0,-8.701 -5.187,-8.701 L 25.891,0 0,0 z"
             id="path78"
             style="fill:none;stroke:#2b2b2a;stroke-width:1.801;stroke-linecap:butt;stroke-linejoin:miter;stroke-miterlimit:10;stroke-opacity:1;stroke-dasharray:none" /></g><g
           transform="translate(111.7144,112.124)"
           id="g80"><path
             d="M 0,0 0,-5.156"
             id="path82"
             style="fill:none;stroke:#2b2b2a;stroke-width:1.801;stroke-linecap:butt;stroke-linejoin:miter;stroke-miterlimit:10;stroke-opacity:1;stroke-dasharray:none" /></g><g
           transform="translate(113.6177,103.3388)"
           id="g84"><path
             d="M 0,0 0,-3.686"
             id="path86"
             style="fill:none;stroke:#2b2b2a;stroke-width:1.801;stroke-linecap:butt;stroke-linejoin:miter;stroke-miterlimit:10;stroke-opacity:1;stroke-dasharray:none" /></g></g></g></g></svg>