<?xml version="1.0" encoding="UTF-8" standalone="no"?>
<!-- Created with Inkscape (http://www.inkscape.org/) -->

<svg
   xmlns:dc="http://purl.org/dc/elements/1.1/"
   xmlns:cc="http://creativecommons.org/ns#"
   xmlns:rdf="http://www.w3.org/1999/02/22-rdf-syntax-ns#"
   xmlns:svg="http://www.w3.org/2000/svg"
   xmlns="http://www.w3.org/2000/svg"
   xmlns:sodipodi="http://sodipodi.sourceforge.net/DTD/sodipodi-0.dtd"
   xmlns:inkscape="http://www.inkscape.org/namespaces/inkscape"
   id="svg2"
   version="1.1"
   inkscape:version="0.48.5 r10040"
   width="287.5"
   height="348.62125"
   xml:space="preserve"
   sodipodi:docname="Widgets_cs6_clean_V2.ai"><metadata
     id="metadata8"><rdf:RDF><cc:Work
         rdf:about=""><dc:format>image/svg+xml</dc:format><dc:type
           rdf:resource="http://purl.org/dc/dcmitype/StillImage" /><dc:title></dc:title></cc:Work></rdf:RDF></metadata><defs
     id="defs6"><clipPath
       clipPathUnits="userSpaceOnUse"
       id="clipPath30"><path
         d="m 0,278.897 230,0 L 230,0 0,0 0,278.897 z"
         id="path32" /></clipPath></defs><sodipodi:namedview
     pagecolor="#ffffff"
     bordercolor="#666666"
     borderopacity="1"
     objecttolerance="10"
     gridtolerance="10"
     guidetolerance="10"
     inkscape:pageopacity="0"
     inkscape:pageshadow="2"
     inkscape:window-width="1855"
     inkscape:window-height="1056"
     id="namedview4"
     showgrid="false"
     inkscape:zoom="1.9147106"
     inkscape:cx="114.20863"
     inkscape:cy="123.28279"
     inkscape:window-x="65"
     inkscape:window-y="24"
     inkscape:window-maximized="1"
     inkscape:current-layer="g10" /><g
     id="g10"
     inkscape:groupmode="layer"
     inkscape:label="Widgets_cs6_clean_V2"
     transform="matrix(1.25,0,0,-1.25,0,348.62125)"><text
       transform="matrix(1,0,0,-1,89.7109,257.2104)"
       id="text12"><tspan
         style="fill:#2b2b2a;fill-opacity:1;fill-rule:nonzero;stroke:none;font-family:Idlewild Bold;font-variant:normal;font-weight:bold;font-stretch:normal;font-size:8.4807;writing-mode:lr;-inkscape-font-specification:Idlewild-Bold"
         x="0"
         y="0"
         sodipodi:role="line"
         id="tspan14">TODAY</tspan><tspan
         style="fill:#2b2b2a;fill-opacity:1;fill-rule:nonzero;stroke:none;font-family:Idlewild Bold;font-variant:normal;font-weight:bold;font-stretch:normal;font-size:8.4807;writing-mode:lr;-inkscape-font-specification:Idlewild-Bold"
         x="-8.9810613"
         y="10.17684"
         sodipodi:role="line"
         id="date">05:34:45</tspan></text>
<text
       transform="matrix(1,0,0,-1,70.0483,190.1899)"
         style="fill:#2b2b2a;fill-opacity:1;fill-rule:nonzero;stroke:none;font-family:TSTAR PRO Headline;font-variant:normal;font-weight:900;font-stretch:normal;font-size:56.9379;writing-mode:lr;-inkscape-font-specification:TSTARPRO-Headline"
         text-anchor="middle"
         x="44"
         y="0"
         sodipodi:role="line"
         id="value">0</text>
<text
       transform="matrix(1,0,0,-1,52.4863,159.4106)"
       id="text22"
       style="-inkscape-font-specification:Gotham HTF;font-family:Gotham HTF"><tspan
         style="fill:#1d1d1d;fill-opacity:1;fill-rule:nonzero;stroke:none;font-family:Gotham HTF;font-variant:normal;font-weight:300;font-stretch:condensed;font-size:26.55679999999999907;writing-mode:lr;-inkscape-font-specification:Gotham HTF"
         x="0 7.3296768 18.1117376 22.6263936 30.1685248 38.7994848 46.3947296 55.238144 59.620016 67.7463968 75.02296 85.8846912 94.7281056 105.7757344 114.4066944"
         y="0"
         sodipodi:role="line"
         id="tspan24">TOILETS FLUSHED</tspan></text>
<g
       id="g26"><g
         id="g28"
         clip-path="url(#clipPath30)"><g
           id="g34"
           transform="translate(115,58.9341)"><path
             d="M 0,0 C 8.376,0 11.077,-1.438 11.881,-2.111 11.192,-2.563 7.583,-4.768 0,-4.768 c -7.334,0 -10.704,1.957 -11.643,2.509 C -10.313,-1.396 -6.84,0 0,0 m 14.315,-9.348 0,6.964 c 0,1.638 -2.283,4.514 -14.315,4.514 -9.968,0 -14.315,-2.876 -14.315,-4.514 l 0,-6.964 c 0,-1.427 1.737,-3.794 10.148,-4.379 l 0,-20.599 8,0 0,20.578 c 8.697,0.544 10.482,2.955 10.482,4.4"
             style="fill:#2b2b2a;fill-opacity:1;fill-rule:nonzero;stroke:none"
             id="path36" /></g><g
           id="g38"
           transform="translate(119.3418,104.1929)"><path
             d="m 0,0 0,-31.889 c 0,-7.437 -8.803,-7.936 -8.803,0 l 0,17.415 -11.866,-0.082 0,20.958 c 0,6.695 7.115,7.774 8.557,2.162"
             style="fill:none;stroke:#2b2b2a;stroke-opacity:1;stroke-width:1.801;stroke-linecap:butt;stroke-linejoin:miter;stroke-miterlimit:10;stroke-dasharray:none"
             id="path40" /></g><g
           id="g42"
           transform="translate(98.6528,110.5952)"><path
             d="m 0,0 c 0,7.937 -8.43,7.453 -8.43,0 l 0,-20.958 11.206,0"
             style="fill:none;stroke:#2b2b2a;stroke-opacity:1;stroke-width:1.801;stroke-linecap:butt;stroke-linejoin:miter;stroke-miterlimit:10;stroke-dasharray:none"
             id="path44" /></g><g
           id="g46"
           transform="translate(90.1934,110.5952)"><path
             d="m 0,0 c 0,7.937 -8.429,7.453 -8.429,0 l 0,-16.599 8.459,0"
             style="fill:none;stroke:#2b2b2a;stroke-opacity:1;stroke-width:1.801;stroke-linecap:butt;stroke-linejoin:miter;stroke-miterlimit:10;stroke-dasharray:none"
             id="path48" /></g><g
           id="g50"
           transform="translate(86.1152,116.3599)"><path
             d="m 0,0 0,21.88 30.051,0 0,-7.87 c 0,0 7.927,0.947 7.927,-4.883 l 0,-21.294 -19.815,0 c 0,6.597 2.339,8.542 7.613,8.542 l 3.049,0"
             style="fill:none;stroke:#2b2b2a;stroke-opacity:1;stroke-width:1.801;stroke-linecap:butt;stroke-linejoin:miter;stroke-miterlimit:10;stroke-dasharray:none"
             id="path52" /></g><g
           id="g54"
           transform="translate(98.6729,130.3696)"><path
             d="M 0,0 C 0,-17.285 16.268,-17.635 16.268,-17.635"
             style="fill:none;stroke:#2b2b2a;stroke-opacity:1;stroke-width:1.801;stroke-linecap:butt;stroke-linejoin:miter;stroke-miterlimit:10;stroke-dasharray:none"
             id="path56" /></g><g
           id="g58"
           transform="translate(86.1152,138.2397)"><path
             d="m 0,0 0,7.209 36.071,0 c 0,-2.407 0,-10.099 -6.02,-10.099 L 30.051,0 0,0 z"
             style="fill:#2b2b2a;fill-opacity:1;fill-rule:nonzero;stroke:none"
             id="path60" /></g><g
           id="g62"
           transform="translate(86.1152,138.2397)"><path
             d="m 0,0 0,7.209 36.071,0 c 0,-2.407 0,-10.099 -6.02,-10.099 L 30.051,0 0,0 z"
             style="fill:none;stroke:#2b2b2a;stroke-opacity:1;stroke-width:1.801;stroke-linecap:butt;stroke-linejoin:miter;stroke-miterlimit:10;stroke-dasharray:none"
             id="path64" /></g><g
           id="g66"
           transform="translate(108.2861,104.1929)"><path
             d="M 0,0 0,-5.984"
             style="fill:none;stroke:#2b2b2a;stroke-opacity:1;stroke-width:1.801;stroke-linecap:butt;stroke-linejoin:miter;stroke-miterlimit:10;stroke-dasharray:none"
             id="path68" /></g><g
           id="g70"
           transform="translate(110.4951,93.9966)"><path
             d="M 0,0 0,-4.277"
             style="fill:none;stroke:#2b2b2a;stroke-opacity:1;stroke-width:1.801;stroke-linecap:butt;stroke-linejoin:miter;stroke-miterlimit:10;stroke-dasharray:none"
             id="path72" /></g><g
           id="g74"
           transform="translate(28.625,24.6079)"><path
             d="M 0,0 172.75,0"
             style="fill:none;stroke:#2b2b2a;stroke-opacity:1;stroke-width:1.801;stroke-linecap:butt;stroke-linejoin:miter;stroke-miterlimit:10;stroke-dasharray:none"
             id="path76" /></g></g></g></g></svg>
