<?xml version="1.0" encoding="UTF-8" standalone="no"?>
<!-- Created with Inkscape (http://www.inkscape.org/) -->

<svg
   xmlns:dc="http://purl.org/dc/elements/1.1/"
   xmlns:cc="http://creativecommons.org/ns#"
   xmlns:rdf="http://www.w3.org/1999/02/22-rdf-syntax-ns#"
   xmlns:svg="http://www.w3.org/2000/svg"
   xmlns="http://www.w3.org/2000/svg"
   version="1.1"
   width="418.10376"
   height="335.17374"
   id="svg2"
   xml:space="preserve"><metadata
     id="metadata8"><rdf:RDF><cc:Work
         rdf:about=""><dc:format>image/svg+xml</dc:format><dc:type
           rdf:resource="http://purl.org/dc/dcmitype/StillImage" /><dc:title></dc:title></cc:Work></rdf:RDF></metadata><defs
     id="defs6"><clipPath
       id="clipPath70"><path
         d="m 0,268.139 334.483,0 L 334.483,0 0,0 0,268.139 z"
         id="path72" /></clipPath></defs><g
     transform="matrix(1.25,0,0,-1.25,0,335.17375)"
     id="g10"><text
       transform="matrix(1,0,0,-1,32.6694,232.0967)"
       id="text12"><tspan
         x="0 9.7867279 20.964291 31.107208 40.817608"
         y="0"
         id="tspan14"
         style="font-size:8.48069954px;font-variant:normal;font-weight:bold;font-stretch:normal;writing-mode:lr-tb;fill:#2b2b2a;fill-opacity:1;fill-rule:nonzero;stroke:none;font-family:Idlewild Bold;-inkscape-font-specification:Idlewild-Bold">TODAY</tspan></text>
<text
       x="59"
       y="-180.43011"
       text-anchor="middle"
       transform="scale(1,-1)"
       id="value"
       style="font-size:56.93790054px;font-variant:normal;font-weight:900;font-stretch:normal;writing-mode:lr-tb;fill:#2b2b2a;fill-opacity:1;fill-rule:nonzero;stroke:none;font-family:TSTAR PRO Headline;-inkscape-font-specification:TSTARPRO-Headline">0</text>
<text
       transform="matrix(1,0,0,-1,36.6685,145.6377)"
       id="text20"><tspan
         x="0 7.8608127 12.375469 25.06962 33.700581"
         y="0"
         id="tspan22"
         style="font-size:26.55680084px;font-variant:normal;font-weight:300;font-stretch:condensed;writing-mode:lr-tb;fill:#2b2b2a;fill-opacity:1;fill-rule:nonzero;stroke:none;font-family:Gotham HTF Light Condensed;-inkscape-font-specification:GothamHTF-LightCondensed">TIMES</tspan><tspan
         x="-4.9661217 3.1602592 13.331513 17.84617 28.468889 38.905712"
         y="24.671267"
         id="tspan24"
         style="font-size:26.55680084px;font-variant:normal;font-weight:300;font-stretch:condensed;writing-mode:lr-tb;fill:#2b2b2a;fill-opacity:1;fill-rule:nonzero;stroke:none;font-family:Gotham HTF Light Condensed;-inkscape-font-specification:GothamHTF-LightCondensed">FRIDGE</tspan><tspan
         x="-4.3022017 6.3205185 17.102579 27.88464 38.055893"
         y="49.342533"
         id="tspan26"
         style="font-size:26.55680084px;font-variant:normal;font-weight:300;font-stretch:condensed;writing-mode:lr-tb;fill:#2b2b2a;fill-opacity:1;fill-rule:nonzero;stroke:none;font-family:Gotham HTF Light Condensed;-inkscape-font-specification:GothamHTF-LightCondensed">DOORS</tspan><tspan
         x="-8.4450626 2.3369985 12.003674 20.634634 31.78849 40.419449"
         y="74.013802"
         id="tspan28"
         style="font-size:26.55680084px;font-variant:normal;font-weight:300;font-stretch:condensed;writing-mode:lr-tb;fill:#2b2b2a;fill-opacity:1;fill-rule:nonzero;stroke:none;font-family:Gotham HTF Light Condensed;-inkscape-font-specification:GothamHTF-LightCondensed">OPENED</tspan></text>
<g
       transform="translate(165.1639,236.8412)"
       id="g30"><path
         d="m 0,0 97.453,0 0,-188.033 -34.658,0"
         id="path32"
         style="fill:none;stroke:#2b2b2a;stroke-width:1.801;stroke-linecap:butt;stroke-linejoin:miter;stroke-miterlimit:10;stroke-opacity:1;stroke-dasharray:none" /></g><g
       transform="translate(217.2108,12.4271)"
       id="g34"><path
         d="m 0,0 10.749,5.494 0,188.033 -62.796,30.887 -10.748,-5.492"
         id="path36"
         style="fill:none;stroke:#2b2b2a;stroke-width:1.801;stroke-linecap:butt;stroke-linejoin:miter;stroke-miterlimit:10;stroke-opacity:1;stroke-dasharray:none" /></g><g
       transform="translate(217.2108,12.4271)"
       id="g38"><path
         d="m 0,0 -62.795,30.889 0,188.033 L 0,188.041 0,0 z"
         id="path40"
         style="fill:#2b2b2a;fill-opacity:1;fill-rule:nonzero;stroke:none" /></g><g
       transform="translate(209.1356,182.6068)"
       id="g42"><path
         d="m 0,0 -10.749,-5.486 0,-47.953 L 0,-47.951"
         id="path44"
         style="fill:none;stroke:#ffffff;stroke-width:1.801;stroke-linecap:butt;stroke-linejoin:miter;stroke-miterlimit:10;stroke-opacity:1;stroke-dasharray:none" /></g><g
       transform="translate(227.9593,182.6068)"
       id="g46"><path
         d="M 0,0 34.658,0"
         id="path48"
         style="fill:none;stroke:#2b2b2a;stroke-width:1.801;stroke-linecap:butt;stroke-linejoin:miter;stroke-miterlimit:10;stroke-opacity:1;stroke-dasharray:none" /></g><g
       transform="translate(262.6171,129.1674)"
       id="g50"><path
         d="M 0,0 -34.658,0"
         id="path52"
         style="fill:none;stroke:#2b2b2a;stroke-width:1.801;stroke-linecap:butt;stroke-linejoin:miter;stroke-miterlimit:10;stroke-opacity:1;stroke-dasharray:none" /></g><g
       transform="translate(262.6171,89.9799)"
       id="g54"><path
         d="M 0,0 -34.658,0"
         id="path56"
         style="fill:none;stroke:#2b2b2a;stroke-width:1.801;stroke-linecap:butt;stroke-linejoin:miter;stroke-miterlimit:10;stroke-opacity:1;stroke-dasharray:none" /></g><g
       transform="translate(227.9593,78.9994)"
       id="g58"><path
         d="m 0,0 14.068,0 0,10.98"
         id="path60"
         style="fill:none;stroke:#2b2b2a;stroke-width:1.801;stroke-linecap:butt;stroke-linejoin:miter;stroke-miterlimit:10;stroke-opacity:1;stroke-dasharray:none" /></g><g
       transform="translate(251.7352,89.9799)"
       id="g62"><path
         d="m 0,0 0,20.076 -4.115,0 0,11.838 -5.831,0 0,-11.838 -4.464,0 0,-20.076"
         id="path64"
         style="fill:#2b2b2a;fill-opacity:1;fill-rule:nonzero;stroke:none" /></g><g
       id="g66"><g
         clip-path="url(#clipPath70)"
         id="g68"><g
           transform="translate(234.9935,129.1674)"
           id="g74"><path
             d="m 0,0 0,23.607 c 0,5.663 2.782,10.805 5.87,10.805 l 0,5.151 5.976,0 0,-5.151 c 3.939,0 7.027,-5.142 7.027,-10.805 L 18.873,0"
             id="path76"
             style="fill:none;stroke:#2b2b2a;stroke-width:1.801;stroke-linecap:butt;stroke-linejoin:miter;stroke-miterlimit:10;stroke-opacity:1;stroke-dasharray:none" /></g><g
           transform="translate(243.4872,182.6068)"
           id="g78"><path
             d="m 0,0 0,23.699 11.835,0 0,-23.699"
             id="path80"
             style="fill:none;stroke:#2b2b2a;stroke-width:1.801;stroke-linecap:butt;stroke-linejoin:miter;stroke-miterlimit:10;stroke-opacity:1;stroke-dasharray:none" /></g><g
           transform="translate(228.993,206.306)"
           id="g82"><path
             d="m 0,0 8.336,0 0,-23.699 -9.37,0"
             id="path84"
             style="fill:#2b2b2a;fill-opacity:1;fill-rule:nonzero;stroke:none" /></g></g></g></g></svg>