<?xml version="1.0" encoding="UTF-8" standalone="no"?>
<!-- Created with Inkscape (http://www.inkscape.org/) -->

<svg
   xmlns:dc="http://purl.org/dc/elements/1.1/"
   xmlns:cc="http://creativecommons.org/ns#"
   xmlns:rdf="http://www.w3.org/1999/02/22-rdf-syntax-ns#"
   xmlns:svg="http://www.w3.org/2000/svg"
   xmlns="http://www.w3.org/2000/svg"
   version="1.1"
   width="539.97247"
   height="354.69376"
   id="svg2"
   xml:space="preserve"><metadata
     id="metadata8"><rdf:RDF><cc:Work
         rdf:about=""><dc:format>image/svg+xml</dc:format><dc:type
           rdf:resource="http://purl.org/dc/dcmitype/StillImage" /><dc:title></dc:title></cc:Work></rdf:RDF></metadata><defs
     id="defs6"><clipPath
       id="clipPath46"><path
         d="m 0,283.755 431.978,0 L 431.978,0 0,0 0,283.755 z"
         id="path48" /></clipPath></defs><g
     transform="matrix(1.25,0,0,-1.25,0,354.69375)"
     id="g10"><text
       transform="matrix(1,0,0,-1,191.1562,227.8965)"
       id="text12"><tspan
         x="0 9.7867279 20.965139 31.108055 40.818459"
         y="0"
         id="tspan14"
         style="font-size:8.48069954px;font-variant:normal;font-weight:bold;font-stretch:normal;writing-mode:lr-tb;fill:#1d1d1d;fill-opacity:1;fill-rule:nonzero;stroke:none;font-family:Idlewild Bold;-inkscape-font-specification:Idlewild-Bold">TODAY</tspan></text>
<text
       x="218.5"
       y="-174.7603"
       text-anchor="middle"
       transform="scale(1,-1)"
       id="value"
       style="font-size:56.93790054px;font-variant:normal;font-weight:900;font-stretch:normal;writing-mode:lr-tb;fill:#1d1d1d;fill-opacity:1;fill-rule:nonzero;stroke:none;font-family:TSTAR PRO Headline;-inkscape-font-specification:TSTARPRO-Headline">0</text>
<text
       transform="matrix(1,0,0,-1,71.1367,141.4395)"
       id="text20"><tspan
         x="0 9.6666756 18.297636 28.468889 37.17952 47.961582 59.115437 67.958855 72.340721 83.388351 93.081581 103.49185 112.12281 116.50468 124.55139 140.7776 145.29225 152.62193 161.35912 172.40674 181.0377 191.66043 196.0423 203.90311 214.95074 219.46539 228.30881 232.69069 242.59637 253.4581 261.31891 268.64859 279.43066"
         y="0"
         id="tspan22"
         style="font-size:26.55680084px;font-variant:normal;font-weight:300;font-stretch:condensed;writing-mode:lr-tb;fill:#1d1d1d;fill-opacity:1;fill-rule:nonzero;stroke:none;font-family:Gotham HTF Light Condensed;-inkscape-font-specification:GothamHTF-LightCondensed">PERSONS HAVE SWITCHED THIS BUTTON</tspan></text>
<path
       d="m 172.432,91.65 88,0 0,-59 -88,0 0,59 z"
       id="path24"
       style="fill:#2b2b2a;fill-opacity:1;fill-rule:nonzero;stroke:#ffffff;stroke-width:1.5;stroke-linecap:butt;stroke-linejoin:round;stroke-miterlimit:4;stroke-opacity:1;stroke-dasharray:none" /><g
       transform="translate(252.4323,44.45)"
       id="g26"><path
         d="m 0,0 -36.3,-11.8 0,59 L 0,59.2 0,0 z"
         id="path28"
         style="fill:#2b2b2a;fill-opacity:1;fill-rule:nonzero;stroke:none" /></g><g
       transform="translate(252.4323,44.45)"
       id="g30"><path
         d="m 0,0 -36.3,-11.8 0,59 L 0,59.2 0,0 z"
         id="path32"
         style="fill:none;stroke:#ffffff;stroke-width:1.5;stroke-linecap:butt;stroke-linejoin:round;stroke-miterlimit:4;stroke-opacity:1;stroke-dasharray:none" /></g><g
       transform="translate(252.4323,103.65)"
       id="g34"><path
         d="M 0,0 7.8,-12 7.8,-71 0,-59.2 0,0 z"
         id="path36"
         style="fill:#2b2b2a;fill-opacity:1;fill-rule:nonzero;stroke:none" /></g><g
       transform="translate(252.4323,103.65)"
       id="g38"><path
         d="M 0,0 7.8,-12 7.8,-71 0,-59.2 0,0 z"
         id="path40"
         style="fill:none;stroke:#ffffff;stroke-width:1.5;stroke-linecap:butt;stroke-linejoin:round;stroke-miterlimit:4;stroke-opacity:1;stroke-dasharray:none" /></g><g
       id="g42"><g
         clip-path="url(#clipPath46)"
         id="g44"><g
           transform="translate(194.8323,67.75)"
           id="g50"><path
             d="m 0,0 c 3.424,0 6.2,-2.776 6.2,-6.2 0,-3.424 -2.776,-6.2 -6.2,-6.2 -3.424,0 -6.2,2.776 -6.2,6.2 0,3.424 2.776,6.2 6.2,6.2 z"
             id="path52"
             style="fill:none;stroke:#ffffff;stroke-width:1.5;stroke-linecap:butt;stroke-linejoin:miter;stroke-miterlimit:4;stroke-opacity:1;stroke-dasharray:none" /></g><g
           transform="translate(234.4323,62.65)"
           id="g54"><path
             d="M 0,0 0,13"
             id="path56"
             style="fill:none;stroke:#ffffff;stroke-width:1.5;stroke-linecap:butt;stroke-linejoin:miter;stroke-miterlimit:4;stroke-opacity:1;stroke-dasharray:none" /></g></g></g></g></svg>