<?xml version="1.0" encoding="UTF-8" standalone="no"?>
<!-- Created with Inkscape (http://www.inkscape.org/) -->

<svg
   xmlns:dc="http://purl.org/dc/elements/1.1/"
   xmlns:cc="http://creativecommons.org/ns#"
   xmlns:rdf="http://www.w3.org/1999/02/22-rdf-syntax-ns#"
   xmlns:svg="http://www.w3.org/2000/svg"
   xmlns="http://www.w3.org/2000/svg"
   xmlns:sodipodi="http://sodipodi.sourceforge.net/DTD/sodipodi-0.dtd"
   xmlns:inkscape="http://www.inkscape.org/namespaces/inkscape"
   id="svg2"
   version="1.1"
   inkscape:version="0.48.5 r10040"
   width="284.98625"
   height="390.16625"
   xml:space="preserve"
   sodipodi:docname="Widgets.ai"><metadata
     id="metadata8"><rdf:RDF><cc:Work
         rdf:about=""><dc:format>image/svg+xml</dc:format><dc:type
           rdf:resource="http://purl.org/dc/dcmitype/StillImage" /><dc:title></dc:title></cc:Work></rdf:RDF></metadata><defs
     id="defs6"><clipPath
       clipPathUnits="userSpaceOnUse"
       id="clipPath16"><path
         d="m 0,312.133 227.989,0 L 227.989,0 0,0 0,312.133 z"
         id="path18" /></clipPath></defs><sodipodi:namedview
     pagecolor="#ffffff"
     bordercolor="#666666"
     borderopacity="1"
     objecttolerance="10"
     gridtolerance="10"
     guidetolerance="10"
     inkscape:pageopacity="0"
     inkscape:pageshadow="2"
     inkscape:window-width="1855"
     inkscape:window-height="1056"
     id="namedview4"
     showgrid="false"
     inkscape:zoom="2.4194814"
     inkscape:cx="121.39414"
     inkscape:cy="192.23581"
     inkscape:window-x="65"
     inkscape:window-y="24"
     inkscape:window-maximized="1"
     inkscape:current-layer="g10" /><g
     id="g10"
     inkscape:groupmode="layer"
     inkscape:label="Widgets"
     transform="matrix(1.25,0,0,-1.25,0,390.16625)"><g
       id="g12"><g
         id="g14"
         clip-path="url(#clipPath16)"><g
           id="g20"
           transform="translate(109.389,92.0508)"><path
             d="m 0,0 c -8.592,0 -8.058,-9.537 0,-9.537 l 26.773,0 0,12.133"
             style="fill:none;stroke:#2b2b2a;stroke-opacity:1;stroke-width:1.801;stroke-linecap:butt;stroke-linejoin:miter;stroke-miterlimit:10;stroke-dasharray:none"
             id="path22" /></g><g
           id="g24"
           transform="translate(109.389,82.9003)"><path
             d="m 0,0 c -8.592,0 -8.058,-9.531 0,-9.531 l 26.773,0 0,12.127"
             style="fill:none;stroke:#2b2b2a;stroke-opacity:1;stroke-width:1.801;stroke-linecap:butt;stroke-linejoin:miter;stroke-miterlimit:10;stroke-dasharray:none"
             id="path26" /></g><g
           id="g28"
           transform="translate(109.389,73.748)"><path
             d="m 0,0 c -8.592,0 -8.058,-9.531 0,-9.531 l 22.053,0 0,9.152"
             style="fill:none;stroke:#2b2b2a;stroke-opacity:1;stroke-width:1.801;stroke-linecap:butt;stroke-linejoin:miter;stroke-miterlimit:10;stroke-dasharray:none"
             id="path30" /></g><g
           id="g32"
           transform="translate(103.1497,68.9218)"><path
             d="m 0,0 -23.677,0 0,32.527 8.518,0 0,27.096 c 0,7.844 10.285,7.414 10.285,0 l 0,-18.508 32.505,0 c 1.906,0 5.382,-2.488 5.382,-6.238 l 0,-12.135 -26.774,0 c -8.057,0 -8.592,9.531 0,9.531 l 14.347,0 0,4.686"
             style="fill:none;stroke:#2b2b2a;stroke-opacity:1;stroke-width:1.801;stroke-linecap:butt;stroke-linejoin:miter;stroke-miterlimit:10;stroke-dasharray:none"
             id="path34" /></g><g
           id="g36"
           transform="translate(87.9906,82.5136)"><path
             d="M 0,0 C 8.649,0 15.152,5.064 15.152,5.064"
             style="fill:none;stroke:#2b2b2a;stroke-opacity:1;stroke-width:1.801;stroke-linecap:butt;stroke-linejoin:miter;stroke-miterlimit:10;stroke-dasharray:none"
             id="path38" /></g><g
           id="g40"
           transform="translate(79.473,68.9218)"><path
             d="m 0,0 -7.802,0 0,39.041 c 2.603,0 10.925,0 10.925,-6.514 L 0,32.527 0,0 z"
             style="fill:#2b2b2a;fill-opacity:1;fill-rule:nonzero;stroke:none"
             id="path42" /></g><g
           id="g44"
           transform="translate(79.473,68.9218)"><path
             d="m 0,0 -7.802,0 0,39.041 c 2.603,0 10.925,0 10.925,-6.514 L 0,32.527 0,0 z"
             style="fill:none;stroke:#2b2b2a;stroke-opacity:1;stroke-width:1.801;stroke-linecap:butt;stroke-linejoin:miter;stroke-miterlimit:10;stroke-dasharray:none"
             id="path46" /></g></g></g><text
       transform="matrix(1,0,0,-1,85.9819,263.4941)"
       id="text48"><tspan
         style="fill:#2b2b2a;fill-opacity:1;fill-rule:nonzero;stroke:none;font-family:Idlewild Bold;font-variant:normal;font-weight:bold;font-stretch:normal;font-size:8.4807;writing-mode:lr;-inkscape-font-specification:Idlewild-Bold"
         x="0 11.0842749 21.965013"
         y="0"
         sodipodi:role="line"
         id="tspan50">now</tspan></text>
<text
       transform="scale(1,-1)"
       id="value"
       text-anchor="middle"
       style="font-size:56.93790054px;font-variant:normal;font-weight:900;font-stretch:normal;writing-mode:lr-tb;fill:#2b2b2a;fill-opacity:1;fill-rule:nonzero;stroke:none;font-family:TSTAR PRO Headline;-inkscape-font-specification:TSTARPRO-Headline"
       x="103.5"
       y="-210.19791">0</text>
<text
       transform="matrix(1,0,0,-1,55.6558,177.0352)"
       id="text56"><tspan
         style="fill:#2b2b2a;fill-opacity:1;fill-rule:nonzero;stroke:none;font-family:Sid Lee EB ExtraBold;font-variant:normal;font-weight:800;font-stretch:normal;font-size:26.5568;writing-mode:lr;-inkscape-font-specification:SidLeeEB-ExtraBold"
         x="0 18.7491008 27.8315264 47.8819104 63.9222176 81.2106944"
         y="0"
         sodipodi:role="line"
         id="tspan58">SIDLEE</tspan></text>
<text
       transform="matrix(1,0,0,-1,45.431432,152.36393)"
       id="text60"><tspan
         style="fill:#2b2b2a;fill-opacity:1;fill-rule:nonzero;stroke:none;font-family:Gotham HTF Light Condensed;font-variant:normal;font-weight:300;font-stretch:condensed;font-size:26.5568;writing-mode:lr;-inkscape-font-specification:GothamHTF-LightCondensed"
         x="0 7.4624608 17.5540448 26.291232 34.922192 44.8278784 55.6099392 66.392 76.218016 80.599888 88.06500448 98.95329248 110.10714848"
         y="0"
         sodipodi:role="line"
         id="tspan62">FACEBOOK FANS</tspan></text>
</g></svg>