<?xml version="1.0" encoding="UTF-8" standalone="no"?>
<!-- Created with Inkscape (http://www.inkscape.org/) -->

<svg
   xmlns:dc="http://purl.org/dc/elements/1.1/"
   xmlns:cc="http://creativecommons.org/ns#"
   xmlns:rdf="http://www.w3.org/1999/02/22-rdf-syntax-ns#"
   xmlns:svg="http://www.w3.org/2000/svg"
   xmlns="http://www.w3.org/2000/svg"
   xmlns:sodipodi="http://sodipodi.sourceforge.net/DTD/sodipodi-0.dtd"
   xmlns:inkscape="http://www.inkscape.org/namespaces/inkscape"
   id="svg2"
   version="1.1"
   inkscape:version="0.48.5 r10040"
   width="287.5"
   height="344.3775"
   xml:space="preserve"
   sodipodi:docname="Widgets_cs6_clean_V2.ai"><metadata
     id="metadata8"><rdf:RDF><cc:Work
         rdf:about=""><dc:format>image/svg+xml</dc:format><dc:type
           rdf:resource="http://purl.org/dc/dcmitype/StillImage" /><dc:title></dc:title></cc:Work></rdf:RDF></metadata><defs
     id="defs6"><clipPath
       clipPathUnits="userSpaceOnUse"
       id="clipPath16"><path
         d="m 0,275.502 230,0 L 230,0 0,0 0,275.502 z"
         id="path18" /></clipPath></defs><sodipodi:namedview
     pagecolor="#ffffff"
     bordercolor="#666666"
     borderopacity="1"
     objecttolerance="10"
     gridtolerance="10"
     guidetolerance="10"
     inkscape:pageopacity="0"
     inkscape:pageshadow="2"
     inkscape:window-width="1855"
     inkscape:window-height="1056"
     id="namedview4"
     showgrid="false"
     inkscape:zoom="1.370589"
     inkscape:cx="166.46853"
     inkscape:cy="179.47904"
     inkscape:window-x="65"
     inkscape:window-y="24"
     inkscape:window-maximized="1"
     inkscape:current-layer="g10" /><g
     id="g10"
     inkscape:groupmode="layer"
     inkscape:label="Widgets_cs6_clean_V2"
     transform="matrix(1.25,0,0,-1.25,0,344.3775)"><g
       id="g12"><g
         id="g14"
         clip-path="url(#clipPath16)"><g
           id="g20"
           transform="translate(122.0186,54.8262)"><path
             d="m 0,0 c -11.02,0 -10.335,-12.233 0,-12.233 l 34.34,0 0,15.562"
             style="fill:none;stroke:#2b2b2a;stroke-opacity:1;stroke-width:1.801;stroke-linecap:butt;stroke-linejoin:miter;stroke-miterlimit:10;stroke-dasharray:none"
             id="path22" /></g><g
           id="g24"
           transform="translate(122.0186,43.0889)"><path
             d="m 0,0 c -11.02,0 -10.335,-12.225 0,-12.225 l 34.34,0 0,15.555"
             style="fill:none;stroke:#2b2b2a;stroke-opacity:1;stroke-width:1.801;stroke-linecap:butt;stroke-linejoin:miter;stroke-miterlimit:10;stroke-dasharray:none"
             id="path26" /></g><g
           id="g28"
           transform="translate(122.0186,31.3506)"><path
             d="m 0,0 c -11.02,0 -10.335,-12.226 0,-12.226 l 28.287,0 0,11.74"
             style="fill:none;stroke:#2b2b2a;stroke-opacity:1;stroke-width:1.801;stroke-linecap:butt;stroke-linejoin:miter;stroke-miterlimit:10;stroke-dasharray:none"
             id="path30" /></g><g
           id="g32"
           transform="translate(114.0161,25.1602)"><path
             d="m 0,0 -30.369,0 0,41.721 10.925,0 0,34.753 c 0,10.06 13.193,9.509 13.193,0 l 0,-23.739 41.691,0 c 2.445,0 6.903,-3.191 6.903,-8.001 l 0,-15.564 -34.341,0 c -10.335,0 -11.02,12.225 0,12.225 l 18.402,0 0,6.009"
             style="fill:none;stroke:#2b2b2a;stroke-opacity:1;stroke-width:1.801;stroke-linecap:butt;stroke-linejoin:miter;stroke-miterlimit:10;stroke-dasharray:none"
             id="path34" /></g><g
           id="g36"
           transform="translate(94.5723,42.5928)"><path
             d="M 0,0 C 11.094,0 19.435,6.496 19.435,6.496"
             style="fill:none;stroke:#2b2b2a;stroke-opacity:1;stroke-width:1.801;stroke-linecap:butt;stroke-linejoin:miter;stroke-miterlimit:10;stroke-dasharray:none"
             id="path38" /></g><g
           id="g40"
           transform="translate(83.6475,25.1602)"><path
             d="m 0,0 -10.007,0 0,50.075 c 3.34,0 14.013,0 14.013,-8.354 L 0,41.721 0,0 z"
             style="fill:#2b2b2a;fill-opacity:1;fill-rule:nonzero;stroke:none"
             id="path42" /></g><g
           id="g44"
           transform="translate(83.6475,25.1602)"><path
             d="m 0,0 -10.007,0 0,50.075 c 3.34,0 14.013,0 14.013,-8.354 L 0,41.721 0,0 z"
             style="fill:none;stroke:#2b2b2a;stroke-opacity:1;stroke-width:1.801;stroke-linecap:butt;stroke-linejoin:miter;stroke-miterlimit:10;stroke-dasharray:none"
             id="path46" /></g></g></g><text
       transform="matrix(1,0,0,-1,96.0713,249.5391)"
       id="text48"><tspan
         style="fill:#2b2b2a;fill-opacity:1;fill-rule:nonzero;stroke:none;font-family:Idlewild Bold;font-variant:normal;font-weight:bold;font-stretch:normal;font-size:8.4807;writing-mode:lr;-inkscape-font-specification:Idlewild-Bold"
         x="0"
         y="0"
         sodipodi:role="line"
         id="tspan50">NOW</tspan><tspan
         style="fill:#2b2b2a;fill-opacity:1;fill-rule:nonzero;stroke:none;font-family:Idlewild Bold;font-variant:normal;font-weight:bold;font-stretch:normal;font-size:8.4807;writing-mode:lr;-inkscape-font-specification:Idlewild-Bold"
         x="-15.3331056"
         y="10.17684"
         sodipodi:role="line"
         id="date">05:34:45</tspan></text>
<text
       transform="matrix(1,0,0,-1,40.4126,182.5166)"
       style="fill:#2b2b2a;fill-opacity:1;fill-rule:nonzero;stroke:none;font-family:TSTAR PRO Headline;font-variant:normal;font-weight:900;font-stretch:normal;font-size:56.9379;writing-mode:lr;-inkscape-font-specification:TSTARPRO-Headline"
       text-anchor="middle"
       x="75"
       y="0"
       sodipodi:role="line"
       id="value">0</text>
<text
       transform="matrix(1,0,0,-1,65.7505,151.7412)"
       id="text58"><tspan
         style="fill:#2b2b2a;fill-opacity:1;fill-rule:nonzero;stroke:none;font-family:Sid Lee EB ExtraBold;font-variant:normal;font-weight:800;font-stretch:normal;font-size:26.5568;writing-mode:lr;-inkscape-font-specification:SidLeeEB-ExtraBold"
         x="0 18.7491008 27.8315264 47.8819104 63.9222176 81.2106944"
         y="0"
         sodipodi:role="line"
         id="tspan60">SIDLEE</tspan></text>
<text
       transform="matrix(1,0,0,-1,55.526132,127.06993)"
       id="text62"><tspan
         style="fill:#1d1d1d;fill-opacity:1;fill-rule:nonzero;stroke:none;font-family:Gotham HTF;font-variant:normal;font-weight:300;font-stretch:condensed;font-size:26.55679999999999907;writing-mode:lr;-inkscape-font-specification:Gotham HTF"
         x="0 7.4624608 17.5540448 26.291232 34.922192 44.8278784 55.6099392 66.392 76.218016 80.599888 88.06500448 98.95329248 110.10714848"
         y="0"
         sodipodi:role="line"
         id="tspan64">FACEBOOK FANS</tspan></text>
</g></svg>
