<?xml version="1.0" encoding="UTF-8" standalone="no"?>
<!-- Created with Inkscape (http://www.inkscape.org/) -->

<svg
   xmlns:dc="http://purl.org/dc/elements/1.1/"
   xmlns:cc="http://creativecommons.org/ns#"
   xmlns:rdf="http://www.w3.org/1999/02/22-rdf-syntax-ns#"
   xmlns:svg="http://www.w3.org/2000/svg"
   xmlns="http://www.w3.org/2000/svg"
   xmlns:sodipodi="http://sodipodi.sourceforge.net/DTD/sodipodi-0.dtd"
   xmlns:inkscape="http://www.inkscape.org/namespaces/inkscape"
   id="svg2"
   version="1.1"
   inkscape:version="0.48.5 r10040"
   width="287.5"
   height="229.71375"
   xml:space="preserve"
   sodipodi:docname="Widgets_cs6_clean_V2.ai"><metadata
     id="metadata8"><rdf:RDF><cc:Work
         rdf:about=""><dc:format>image/svg+xml</dc:format><dc:type
           rdf:resource="http://purl.org/dc/dcmitype/StillImage" /><dc:title></dc:title></cc:Work></rdf:RDF></metadata><defs
     id="defs6" /><sodipodi:namedview
     pagecolor="#ffffff"
     bordercolor="#666666"
     borderopacity="1"
     objecttolerance="10"
     gridtolerance="10"
     guidetolerance="10"
     inkscape:pageopacity="0"
     inkscape:pageshadow="2"
     inkscape:window-width="1855"
     inkscape:window-height="1056"
     id="namedview4"
     showgrid="false"
     inkscape:zoom="1.0273656"
     inkscape:cx="143.75"
     inkscape:cy="114.85687"
     inkscape:window-x="65"
     inkscape:window-y="24"
     inkscape:window-maximized="1"
     inkscape:current-layer="g10" /><g
     id="g10"
     inkscape:groupmode="layer"
     inkscape:label="Widgets_cs6_clean_V2"
     transform="matrix(1.25,0,0,-1.25,0,229.71375)"><g
       id="g12"
       transform="translate(21.9756,32.0146)"><path
         d="M 0,0 8.556,130.824 189.388,116.632 180.827,-14.197 0,0 z"
         style="fill:#ffffff;fill-opacity:1;fill-rule:nonzero;stroke:none"
         id="path14" /></g><g
       id="g16"
       transform="translate(21.9756,32.0146)"><path
         d="M 0,0 8.556,130.824 189.388,116.632 180.827,-14.197 0,0 z"
         style="fill:none;stroke:#1d1d1d;stroke-opacity:1;stroke-width:1.801;stroke-linecap:butt;stroke-linejoin:miter;stroke-miterlimit:10;stroke-dasharray:none"
         id="path18" /></g><g
       id="g20"
       transform="translate(30.2729,27.6685)"><path
         d="M 0,0 2.837,131.14 184.132,125.325 181.291,-5.821 0,0 z"
         style="fill:#ffffff;fill-opacity:1;fill-rule:nonzero;stroke:none"
         id="path22" /></g><g
       id="g24"
       transform="translate(30.2729,27.6685)"><path
         d="M 0,0 2.837,131.14 184.132,125.325 181.291,-5.821 0,0 z"
         style="fill:none;stroke:#1d1d1d;stroke-opacity:1;stroke-width:1.801;stroke-linecap:butt;stroke-linejoin:miter;stroke-miterlimit:10;stroke-dasharray:none"
         id="path26" /></g><g
       id="g28"
       transform="translate(19.0215,28.0918)"><path
         d="M 0,0 -1.962,131.201 179.422,132.416 181.38,1.209 0,0 z"
         style="fill:#ffffff;fill-opacity:1;fill-rule:nonzero;stroke:none"
         id="path30" /></g><g
       id="g32"
       transform="translate(19.0215,28.0918)"><path
         d="M 0,0 -1.962,131.201 179.422,132.416 181.38,1.209 0,0 z"
         style="fill:none;stroke:#1d1d1d;stroke-opacity:1;stroke-width:1.801;stroke-linecap:butt;stroke-linejoin:miter;stroke-miterlimit:10;stroke-dasharray:none"
         id="path34" /></g><g
       id="g36"
       transform="translate(28.1973,18.7837)"><path
         d="M 0,0 -12.719,130.661 167.875,147.63 180.589,16.964 0,0 z"
         style="fill:#ffffff;fill-opacity:1;fill-rule:nonzero;stroke:none"
         id="path38" /></g><g
       id="g40"
       transform="translate(28.1973,18.7837)"><path
         d="M 0,0 -12.719,130.661 167.875,147.63 180.589,16.964 0,0 z"
         style="fill:none;stroke:#1d1d1d;stroke-opacity:1;stroke-width:1.801;stroke-linecap:butt;stroke-linejoin:miter;stroke-miterlimit:10;stroke-dasharray:none"
         id="path42" /></g><g
       id="g44"
       transform="translate(26.7256,21.0601)"><path
         d="M 0,0 -1.499,131.204 179.89,131.738 181.383,0.53 0,0 z"
         style="fill:#ffffff;fill-opacity:1;fill-rule:nonzero;stroke:none"
         id="path46" /></g><g
       id="g48"
       transform="translate(26.7256,21.0601)"><path
         d="M 0,0 -1.499,131.204 179.89,131.738 181.383,0.53 0,0 z"
         style="fill:none;stroke:#1d1d1d;stroke-opacity:1;stroke-width:1.801;stroke-linecap:butt;stroke-linejoin:miter;stroke-miterlimit:10;stroke-dasharray:none"
         id="path50" /></g><g
       id="g52"
       transform="translate(28.7603,21.5986)"><path
         d="M 0,0 -5.459,131.128 175.819,137.464 181.273,6.33 0,0 z"
         style="fill:#ffffff;fill-opacity:1;fill-rule:nonzero;stroke:none"
         id="path54" /></g><g
       id="g56"
       transform="translate(28.7603,21.5986)"><path
         d="M 0,0 -5.459,131.128 175.819,137.464 181.273,6.33 0,0 z"
         style="fill:none;stroke:#1d1d1d;stroke-opacity:1;stroke-width:1.801;stroke-linecap:butt;stroke-linejoin:miter;stroke-miterlimit:10;stroke-dasharray:none"
         id="path58" /></g><text
       transform="matrix(0.99949794,0.03168386,0.03168386,-0.99949794,89.5895,134.9106)"
       id="text60"><tspan
         style="fill:#2b2b2a;fill-opacity:1;fill-rule:nonzero;stroke:none;font-family:Idlewild Bold;font-variant:normal;font-weight:bold;font-stretch:normal;font-size:8.4806578;writing-mode:lr;-inkscape-font-specification:Idlewild-Bold"
         x="0"
         y="0"
         sodipodi:role="line"
         id="tspan62">TODAY</tspan><tspan
         style="fill:#2b2b2a;fill-opacity:1;fill-rule:nonzero;stroke:none;font-family:Idlewild Bold;font-variant:normal;font-weight:bold;font-stretch:normal;font-size:8.4806578;writing-mode:lr;-inkscape-font-specification:Idlewild-Bold"
         x="-8.98101661"
         y="10.176789"
         sodipodi:role="line"
         id="date">05:34:45</tspan></text>
<text
       transform="matrix(0.99949806,0.03168008,0.03168008,-0.99949806,86.8235,71.1786)"
       style="fill:#1d1d1d;fill-opacity:1;fill-rule:nonzero;stroke:none;font-family:TSTAR PRO Headline;font-variant:normal;font-weight:900;font-stretch:normal;font-size:56.93797944;writing-mode:lr;-inkscape-font-specification:TSTARPRO-Headline"
       text-anchor="middle"
       x="29.72162527"
       y="0"
       sodipodi:role="line"
       id="value">0</text>
<text
       transform="matrix(0.99949809,0.03167911,0.03167911,-0.99949809,77.1496,41.209)"
       id="text70"><tspan
         style="fill:#1d1d1d;fill-opacity:1;fill-rule:nonzero;stroke:none;font-family:Gotham HTF;font-variant:normal;font-weight:300;font-stretch:condensed;font-size:26.55692915999999926;writing-mode:lr;-inkscape-font-specification:Gotham HTF"
         x="0 9.66672222 19.83802609 24.35270404 35.50661429 42.83632674 53.61843998 64.48022401 72.07550575"
         y="0"
         sodipodi:role="line"
         id="tspan72">PRINTOUTS</tspan></text>
</g></svg>
