<?xml version="1.0" encoding="UTF-8" standalone="no"?>
<!-- Created with Inkscape (http://www.inkscape.org/) -->

<svg
   xmlns:dc="http://purl.org/dc/elements/1.1/"
   xmlns:cc="http://creativecommons.org/ns#"
   xmlns:rdf="http://www.w3.org/1999/02/22-rdf-syntax-ns#"
   xmlns:svg="http://www.w3.org/2000/svg"
   xmlns="http://www.w3.org/2000/svg"
   version="1.1"
   width="448.10251"
   height="390.27499"
   id="svg2"
   xml:space="preserve"><metadata
     id="metadata8"><rdf:RDF><cc:Work
         rdf:about=""><dc:format>image/svg+xml</dc:format><dc:type
           rdf:resource="http://purl.org/dc/dcmitype/StillImage" /><dc:title></dc:title></cc:Work></rdf:RDF></metadata><defs
     id="defs6" /><g
     transform="matrix(1.25,0,0,-1.25,0,390.275)"
     id="g10"><g
       transform="translate(61.3676,111.0985)"
       id="g12"><path
         d="M 0,0 23.979,131.484 227.879,94.295 203.896,-37.184 0,0 z"
         id="path14"
         style="fill:#ffffff;fill-opacity:1;fill-rule:nonzero;stroke:none" /></g><g
       transform="translate(61.3676,111.0985)"
       id="g16"><path
         d="M 0,0 23.979,131.484 227.879,94.295 203.896,-37.184 0,0 z"
         id="path18"
         style="fill:none;stroke:#1d1d1d;stroke-width:1.801;stroke-linecap:butt;stroke-linejoin:miter;stroke-miterlimit:10;stroke-opacity:1;stroke-dasharray:none" /></g>
<g
       transform="translate(58.5464,96.1845)"
       id="g32"><path
         d="M 0,0 6.054,133.512 213.101,124.127 207.044,-9.391 0,0 z"
         id="path34"
         style="fill:#ffffff;fill-opacity:1;fill-rule:nonzero;stroke:none" /></g><g
       transform="translate(58.5464,96.1845)"
       id="g36"><path
         d="M 0,0 6.054,133.512 213.101,124.127 207.044,-9.391 0,0 z"
         id="path38"
         style="fill:none;stroke:#1d1d1d;stroke-width:1.801;stroke-linecap:butt;stroke-linejoin:miter;stroke-miterlimit:10;stroke-opacity:1;stroke-dasharray:none" /></g>
<g
       transform="translate(69.5726,96.8388)"
       id="g52"><path
         d="M 0,0 4.316,133.588 211.468,126.893 207.149,-6.689 0,0 z"
         id="path54"
         style="fill:#ffffff;fill-opacity:1;fill-rule:nonzero;stroke:none" /></g><g
       transform="translate(69.5726,96.8388)"
       id="g56"><path
         d="M 0,0 4.316,133.588 211.468,126.893 207.149,-6.689 0,0 z"
         id="path58"
         style="fill:none;stroke:#1d1d1d;stroke-width:1.801;stroke-linecap:butt;stroke-linejoin:miter;stroke-miterlimit:10;stroke-opacity:1;stroke-dasharray:none" /></g>
<g
       transform="translate(72.9144,81.372)"
       id="g72"><path
         d="M 0,0 -2.438,133.629 204.789,137.406 207.219,3.777 0,0 z"
         id="path74"
         style="fill:#ffffff;fill-opacity:1;fill-rule:nonzero;stroke:none" /></g><g
       transform="translate(72.9144,81.372)"
       id="g76"><path
         d="M 0,0 -2.438,133.629 204.789,137.406 207.219,3.777 0,0 z"
         id="path78"
         style="fill:none;stroke:#1d1d1d;stroke-width:1.801;stroke-linecap:butt;stroke-linejoin:miter;stroke-miterlimit:10;stroke-opacity:1;stroke-dasharray:none" /></g>
<g
       transform="translate(80.7534,85.0497)"
       id="g92"><path
         d="M 0,0 2.301,133.631 209.53,130.057 207.224,-3.572 0,0 z"
         id="path94"
         style="fill:#ffffff;fill-opacity:1;fill-rule:nonzero;stroke:none" /></g><g
       transform="translate(80.7534,85.0497)"
       id="g96"><path
         d="M 0,0 2.301,133.631 209.53,130.057 207.224,-3.572 0,0 z"
         id="path98"
         style="fill:none;stroke:#1d1d1d;stroke-width:1.801;stroke-linecap:butt;stroke-linejoin:miter;stroke-miterlimit:10;stroke-opacity:1;stroke-dasharray:none" /></g>
<g
       transform="translate(71.0179,82.7353)"
       id="g112"><path
         d="M 0,0 -4.67,133.568 202.461,140.807 207.125,7.232 0,0 z"
         id="path114"
         style="fill:#ffffff;fill-opacity:1;fill-rule:nonzero;stroke:none" /></g><g
       transform="translate(71.0179,82.7353)"
       id="g116"><path
         d="M 0,0 -4.67,133.568 202.461,140.807 207.125,7.232 0,0 z"
         id="path118"
         style="fill:none;stroke:#1d1d1d;stroke-width:1.801;stroke-linecap:butt;stroke-linejoin:miter;stroke-miterlimit:10;stroke-opacity:1;stroke-dasharray:none" /></g><text
       transform="matrix(0.99949794,0.03168386,0.03168386,-0.99949794,144.6002,194.601)"
       id="text120"><tspan
         x="0 9.7866793 20.965034 31.107901 40.818253"
         y="0"
         id="tspan122"
         style="font-size:8.48065758px;font-variant:normal;font-weight:bold;font-stretch:normal;writing-mode:lr-tb;fill:#1d1d1d;fill-opacity:1;fill-rule:nonzero;stroke:none;font-family:Idlewild Bold;-inkscape-font-specification:Idlewild-Bold">TODAY</tspan></text>
<text
       x="177"
       y="-137.32953"
       text-anchor="middle"
       transform="matrix(0.99949806,0.03168008,0.03168008,-0.99949806,0,0)"
       id="value"
       style="font-size:56.93798065px;font-variant:normal;font-weight:900;font-stretch:normal;writing-mode:lr-tb;fill:#1d1d1d;fill-opacity:1;fill-rule:nonzero;stroke:none;font-family:TSTAR PRO Headline;-inkscape-font-specification:TSTARPRO-Headline">0</text>
<text
       transform="matrix(0.99949809,0.03167911,0.03167911,-0.99949809,132.1604,107.7021)"
       id="text128"><tspan
         x="0 9.6667223 19.838026 24.352703 35.506615 42.836327 53.618439 64.480225 72.075508"
         y="0"
         id="tspan130"
         style="font-size:26.55692863px;font-variant:normal;font-weight:300;font-stretch:condensed;writing-mode:lr-tb;fill:#1d1d1d;fill-opacity:1;fill-rule:nonzero;stroke:none;font-family:Gotham HTF Light Condensed;-inkscape-font-specification:GothamHTF-LightCondensed">PRINTOUTS</tspan></text>
</g></svg>