<?xml version="1.0" encoding="UTF-8" standalone="no"?>
<!-- Created with Inkscape (http://www.inkscape.org/) -->

<svg
   xmlns:dc="http://purl.org/dc/elements/1.1/"
   xmlns:cc="http://creativecommons.org/ns#"
   xmlns:rdf="http://www.w3.org/1999/02/22-rdf-syntax-ns#"
   xmlns:svg="http://www.w3.org/2000/svg"
   xmlns="http://www.w3.org/2000/svg"
   xmlns:sodipodi="http://sodipodi.sourceforge.net/DTD/sodipodi-0.dtd"
   xmlns:inkscape="http://www.inkscape.org/namespaces/inkscape"
   id="svg2"
   version="1.1"
   inkscape:version="0.48.5 r10040"
   width="287.5"
   height="339.9925"
   xml:space="preserve"
   sodipodi:docname="Widgets_cs6_clean_V2.ai"><metadata
     id="metadata8"><rdf:RDF><cc:Work
         rdf:about=""><dc:format>image/svg+xml</dc:format><dc:type
           rdf:resource="http://purl.org/dc/dcmitype/StillImage" /><dc:title></dc:title></cc:Work></rdf:RDF></metadata><defs
     id="defs6"><clipPath
       clipPathUnits="userSpaceOnUse"
       id="clipPath36"><path
         d="m 0,271.994 230,0 L 230,0 0,0 0,271.994 z"
         id="path38" /></clipPath><clipPath
       clipPathUnits="userSpaceOnUse"
       id="clipPath96"><path
         d="m 0,271.994 230,0 L 230,0 0,0 0,271.994 z"
         id="path98" /></clipPath></defs><sodipodi:namedview
     pagecolor="#ffffff"
     bordercolor="#666666"
     borderopacity="1"
     objecttolerance="10"
     gridtolerance="10"
     guidetolerance="10"
     inkscape:pageopacity="0"
     inkscape:pageshadow="2"
     inkscape:window-width="1855"
     inkscape:window-height="1056"
     id="namedview4"
     showgrid="false"
     inkscape:zoom="2.7765319"
     inkscape:cx="155.88127"
     inkscape:cy="151.9765"
     inkscape:window-x="65"
     inkscape:window-y="24"
     inkscape:window-maximized="1"
     inkscape:current-layer="g10" /><g
     id="g10"
     inkscape:groupmode="layer"
     inkscape:label="Widgets_cs6_clean_V2"
     transform="matrix(1.25,0,0,-1.25,0,339.9925)"><text
       transform="matrix(1,0,0,-1,47.3076,42.7705)"
       id="text12"><tspan
         style="fill:#1d1d1d;fill-opacity:1;fill-rule:nonzero;stroke:none;font-family:Gotham HTF;font-variant:normal;font-weight:300;font-stretch:condensed;font-size:26.55679999999999907;writing-mode:lr;-inkscape-font-specification:Gotham HTF"
         x="0"
         y="0"
         sodipodi:role="line"
         id="tspan14">GOALS SCORED ON</tspan><tspan
         style="fill:#1d1d1d;fill-opacity:1;fill-rule:nonzero;stroke:none;font-family:Gotham HTF;font-variant:normal;font-weight:300;font-stretch:condensed;font-size:26.55679999999999907;writing-mode:lr;-inkscape-font-specification:Gotham HTF"
         x="-10"
         y="24.671267"
         sodipodi:role="line"
         id="tspan16">THE TABLE-FOOTBALL</tspan></text>
<text
       transform="matrix(1,0,0,-1,89.7104,250.5605)"
       id="text18"><tspan
         style="fill:#2b2b2a;fill-opacity:1;fill-rule:nonzero;stroke:none;font-family:Idlewild Bold;font-variant:normal;font-weight:bold;font-stretch:normal;font-size:8.4807;writing-mode:lr;-inkscape-font-specification:Idlewild-Bold"
         x="0"
         y="0"
         sodipodi:role="line"
         id="tspan20">TODAY</tspan><tspan
         style="fill:#2b2b2a;fill-opacity:1;fill-rule:nonzero;stroke:none;font-family:Idlewild Bold;font-variant:normal;font-weight:bold;font-stretch:normal;font-size:8.4807;writing-mode:lr;-inkscape-font-specification:Idlewild-Bold"
         x="-9"
         y="10.17684"
         sodipodi:role="line"
         id="date">05:34:45</tspan></text>
<text
       transform="matrix(1,0,0,-1,129.8569,90.8936)"
       style="fill:#2b2b2a;fill-opacity:1;fill-rule:nonzero;stroke:none;font-family:TSTAR PRO Headline;font-variant:normal;font-weight:900;font-stretch:normal;font-size:56.9379;writing-mode:lr;-inkscape-font-specification:TSTARPRO-Headline"
       x="28.5"
       text-anchor="middle"
       sodipodi:role="line"
       id="red">0</text>
<g
       id="g28"
       transform="translate(102.915,80.9419)"><path
         d="m 0,0 -64.089,0 0,89.617 22.034,0 10.014,-14.012 10.516,14.012 L 0,89.617 0,0 z"
         style="fill:none;stroke:#2b2b2a;stroke-opacity:1;stroke-width:1.801;stroke-linecap:butt;stroke-linejoin:miter;stroke-miterlimit:10;stroke-dasharray:none"
         id="path30" /></g><g
       id="g32"><g
         id="g34"
         clip-path="url(#clipPath36)"><g
           id="g40"
           transform="translate(60.8604,170.5591)"><path
             d="m 0,0 0,9.018 c -4.509,0 -6.714,6.957 -6.714,14.47 l 0,16.383 c 0,18.076 32.446,17.57 32.446,0 l 0,-9.877 3.555,-6.506 -3.679,0 0,-13.97 -5.879,0 0,-9.518"
             style="fill:none;stroke:#2b2b2a;stroke-opacity:1;stroke-width:1.801;stroke-linecap:butt;stroke-linejoin:miter;stroke-miterlimit:10;stroke-dasharray:none"
             id="path42" /></g><g
           id="g44"
           transform="translate(38.8262,167.0552)"><path
             d="m 0,0 c -3.508,0 -6.015,-2.004 -6.015,-6.506 l 0,-23.537 c 0,-6.281 3.514,-6.711 6.015,-6.711"
             style="fill:none;stroke:#2b2b2a;stroke-opacity:1;stroke-width:1.801;stroke-linecap:butt;stroke-linejoin:miter;stroke-miterlimit:10;stroke-dasharray:none"
             id="path46" /></g><g
           id="g48"
           transform="translate(102.915,130.3013)"><path
             d="m 0,0 c 3.511,0 6.018,2.006 6.018,6.508 l 0,23.543 C 6.018,36.318 2.5,36.754 0,36.754"
             style="fill:none;stroke:#2b2b2a;stroke-opacity:1;stroke-width:1.801;stroke-linecap:butt;stroke-linejoin:miter;stroke-miterlimit:10;stroke-dasharray:none"
             id="path50" /></g><g
           id="g52"
           transform="translate(55.501,187.9907)"><path
             d="m 0,0 c 3.088,0.611 8.363,0.555 8.363,3.656 0,6.078 1.442,9.258 5.695,9.258 0.847,2.975 1.315,4.545 1.315,8.955 l 15.595,0 c 0,16.559 -32.322,18.992 -32.322,0.57 l 0,-16.382 C -1.354,3.867 0,0 0,0"
             style="fill:#2b2b2a;fill-opacity:1;fill-rule:nonzero;stroke:none"
             id="path54" /></g><g
           id="g56"
           transform="translate(127.085,80.9419)"><path
             d="m 0,0 64.09,0 0,89.617 -22.031,0 L 32.049,75.605 21.525,89.617 0,89.617 0,0 z"
             style="fill:none;stroke:#2b2b2a;stroke-opacity:1;stroke-width:1.801;stroke-linecap:butt;stroke-linejoin:miter;stroke-miterlimit:10;stroke-dasharray:none"
             id="path58" /></g><g
           id="g60"
           transform="translate(149.4111,170.5591)"><path
             d="m 0,0 0,9.518 -5.88,0 0,13.97 -3.672,0 3.548,6.506 c 0,3.461 -0.115,6.781 -0.115,6.781 l 0,5.846 c 0,18.084 32.453,17.578 32.453,0 l 0,-5.846"
             style="fill:none;stroke:#2b2b2a;stroke-opacity:1;stroke-width:1.801;stroke-linecap:butt;stroke-linejoin:miter;stroke-miterlimit:10;stroke-dasharray:none"
             id="path62" /></g><g
           id="g64"
           transform="translate(169.1436,170.5591)"><path
             d="m 0,0 0,9.018 c 4.516,0 6.713,6.957 6.713,14.47 l 0,16.383"
             style="fill:none;stroke:#2b2b2a;stroke-opacity:1;stroke-width:1.801;stroke-linecap:butt;stroke-linejoin:miter;stroke-miterlimit:10;stroke-dasharray:none"
             id="path66" /></g><g
           id="g68"
           transform="translate(191.1748,167.0552)"><path
             d="m 0,0 c 3.51,0 6.014,-2.004 6.014,-6.506 l 0,-23.537 C 6.014,-36.324 2.5,-36.754 0,-36.754"
             style="fill:none;stroke:#2b2b2a;stroke-opacity:1;stroke-width:1.801;stroke-linecap:butt;stroke-linejoin:miter;stroke-miterlimit:10;stroke-dasharray:none"
             id="path70" /></g><g
           id="g72"
           transform="translate(127.085,130.3013)"><path
             d="m 0,0 c -3.514,0 -6.014,2.006 -6.014,6.508 l 0,23.543 c 0,6.267 3.517,6.703 6.014,6.703"
             style="fill:none;stroke:#2b2b2a;stroke-opacity:1;stroke-width:1.801;stroke-linecap:butt;stroke-linejoin:miter;stroke-miterlimit:10;stroke-dasharray:none"
             id="path74" /></g><g
           id="g76"
           transform="translate(174.9355,186.2251)"><path
             d="m 0,0 c -6.151,0 -8.793,4.367 -8.793,6.998 0,2.631 -1.582,6.719 -5.774,6.719 l 0,7.392 7.283,5.178 0,12.344"
             style="fill:none;stroke:#2b2b2a;stroke-opacity:1;stroke-width:1.801;stroke-linecap:butt;stroke-linejoin:miter;stroke-miterlimit:10;stroke-dasharray:none"
             id="path78" /></g><g
           id="g80"
           transform="translate(108.9326,159.3247)"><path
             d="M 0,0 11.674,0"
             style="fill:none;stroke:#2b2b2a;stroke-opacity:1;stroke-width:1.801;stroke-linecap:butt;stroke-linejoin:miter;stroke-miterlimit:10;stroke-dasharray:none"
             id="path82" /></g><g
           id="g84"
           transform="translate(108.9326,139.5376)"><path
             d="M 0,0 11.674,0"
             style="fill:none;stroke:#2b2b2a;stroke-opacity:1;stroke-width:1.801;stroke-linecap:butt;stroke-linejoin:miter;stroke-miterlimit:10;stroke-dasharray:none"
             id="path86" /></g></g></g>
             <text
       transform="matrix(1,0,0,-1,40.7886,90.8936)"
       style="fill:#2b2b2a;fill-opacity:1;fill-rule:nonzero;stroke:none;font-family:TSTAR PRO Headline;font-variant:normal;font-weight:900;font-stretch:normal;font-size:56.9379;writing-mode:lr;-inkscape-font-specification:TSTARPRO-Headline"
       text-anchor="middle"
       x="29.5507701"
       sodipodi:role="line"
       id="blue">0</text>
<g
       id="g92"><g
         id="g94"
         clip-path="url(#clipPath96)"><g
           id="g100"
           transform="translate(144.168,217.9419)"><path
             d="M 0,0 C 9.956,0 16.034,2.518 18.735,8.609"
             style="fill:none;stroke:#2b2b2a;stroke-opacity:1;stroke-width:1.801;stroke-linecap:butt;stroke-linejoin:miter;stroke-miterlimit:10;stroke-dasharray:none"
             id="path102" /></g></g></g>
    <text
       transform="matrix(1,0,0,-1,51.6309,138.4756)"
       id="text104"><tspan
         style="fill:#2b2b2a;fill-opacity:1;fill-rule:nonzero;stroke:none;font-family:Knockout;font-variant:normal;font-weight:normal;font-stretch:normal;font-size:21.6093;writing-mode:lr;-inkscape-font-specification:Knockout-HTF26-JuniorFlyweight"
         x="9"
         y="0"
         sodipodi:role="line"
         id="tspan106">BLUE</tspan>
         <tspan
         style="fill:#2b2b2a;fill-opacity:1;fill-rule:nonzero;stroke:none;font-family:Knockout;font-variant:normal;font-weight:normal;font-stretch:normal;font-size:21.6093;writing-mode:lr;-inkscape-font-specification:Knockout-HTF26-JuniorFlyweight"
         x="100"
         y="0"
         sodipodi:role="line"
         id="tspan106">RED</tspan>
     </text>
</g></svg>
