<?xml version="1.0" encoding="UTF-8" standalone="no"?>
<!-- Created with Inkscape (http://www.inkscape.org/) -->

<svg
   xmlns:dc="http://purl.org/dc/elements/1.1/"
   xmlns:cc="http://creativecommons.org/ns#"
   xmlns:rdf="http://www.w3.org/1999/02/22-rdf-syntax-ns#"
   xmlns:svg="http://www.w3.org/2000/svg"
   xmlns="http://www.w3.org/2000/svg"
   xmlns:sodipodi="http://sodipodi.sourceforge.net/DTD/sodipodi-0.dtd"
   xmlns:inkscape="http://www.inkscape.org/namespaces/inkscape"
   id="svg2"
   version="1.1"
   inkscape:version="0.48.5 r10040"
   width="287.5"
   height="281.04125"
   xml:space="preserve"
   sodipodi:docname="Widgets_cs6_clean_V2.ai"><metadata
     id="metadata8"><rdf:RDF><cc:Work
         rdf:about=""><dc:format>image/svg+xml</dc:format><dc:type
           rdf:resource="http://purl.org/dc/dcmitype/StillImage" /><dc:title></dc:title></cc:Work></rdf:RDF></metadata><defs
     id="defs6"><clipPath
       clipPathUnits="userSpaceOnUse"
       id="clipPath18"><path
         d="m 0,224.833 230,0 L 230,0 0,0 0,224.833 z"
         id="path20" /></clipPath><clipPath
       clipPathUnits="userSpaceOnUse"
       id="clipPath34"><path
         d="m 0,224.833 230,0 L 230,0 0,0 0,224.833 z"
         id="path36" /></clipPath><clipPath
       clipPathUnits="userSpaceOnUse"
       id="clipPath72"><path
         d="m 0,0 230,0 0,43.006 -230,0 L 0,0 z"
         id="path74" /></clipPath><clipPath
       clipPathUnits="userSpaceOnUse"
       id="clipPath84"><path
         d="m 0,224.833 230,0 L 230,0 0,0 0,224.833 z"
         id="path86" /></clipPath></defs><sodipodi:namedview
     pagecolor="#ffffff"
     bordercolor="#666666"
     borderopacity="1"
     objecttolerance="10"
     gridtolerance="10"
     guidetolerance="10"
     inkscape:pageopacity="0"
     inkscape:pageshadow="2"
     inkscape:window-width="1855"
     inkscape:window-height="1056"
     id="namedview4"
     showgrid="false"
     inkscape:zoom="2.3751274"
     inkscape:cx="161.39059"
     inkscape:cy="114.90578"
     inkscape:window-x="65"
     inkscape:window-y="24"
     inkscape:window-maximized="1"
     inkscape:current-layer="g10" /><g
     id="g10"
     inkscape:groupmode="layer"
     inkscape:label="Widgets_cs6_clean_V2"
     transform="matrix(1.25,0,0,-1.25,0,281.04125)"><path
       d="m 185.141,172.618 -140.15,0 0,50.986 140.15,0 0,-50.986 z"
       style="fill:#2b2b2a;fill-opacity:1;fill-rule:nonzero;stroke:none"
       id="path12" /><g
       id="g14"><g
         id="g16"
         clip-path="url(#clipPath18)"><path
           d="m 185.141,172.618 -140.15,0 0,50.986 140.15,0 0,-50.986 z"
           style="fill:none;stroke:#2b2b2a;stroke-opacity:1;stroke-width:2;stroke-linecap:butt;stroke-linejoin:miter;stroke-miterlimit:10;stroke-dasharray:none"
           id="path22" /></g></g><path
       d="m 211.834,62.583 -192.969,0 0,96.12 192.969,0 0,-96.12 z"
       style="fill:#2b2b2a;fill-opacity:1;fill-rule:nonzero;stroke:#2b2b2a;stroke-opacity:1;stroke-width:2;stroke-linecap:butt;stroke-linejoin:miter;stroke-miterlimit:10;stroke-dasharray:none"
       id="path24" /><g
       id="g26"
       transform="translate(18.3348,61.3908)"><path
         d="m 0,0 -18.335,-9.711 230.001,0 L 193.331,0 0,0 z"
         style="fill:#ffffff;fill-opacity:1;fill-rule:nonzero;stroke:none"
         id="path28" /></g><g
       id="g30"><g
         id="g32"
         clip-path="url(#clipPath34)"><g
           id="g38"
           transform="translate(0,51.6797)"><path
             d="m 0,0 18.335,9.711 193.331,0 L 230,0"
             style="fill:none;stroke:#2b2b2a;stroke-opacity:1;stroke-width:2;stroke-linecap:butt;stroke-linejoin:miter;stroke-miterlimit:10;stroke-dasharray:none"
             id="path40" /></g></g></g><g
       id="g42"
       transform="translate(22.2666,160.4043)"><path
         d="m 0,0 23.292,11.046 139.583,0 L 186.167,0 0,0 z"
         style="fill:#ffffff;fill-opacity:1;fill-rule:nonzero;stroke:none"
         id="path44" /></g><g
       id="g46"
       transform="translate(22.2666,160.4043)"><path
         d="m 0,0 23.292,11.046 139.583,0 L 186.167,0 0,0 z"
         style="fill:none;stroke:#2b2b2a;stroke-opacity:1;stroke-width:2;stroke-linecap:butt;stroke-linejoin:miter;stroke-miterlimit:10;stroke-dasharray:none"
         id="path48" /></g><text
       transform="matrix(1,0,0,-1,29.3477,72.9722)"
       id="text50"
       style="-inkscape-font-specification:Gotham HTF;font-family:Gotham HTF"><tspan
         style="fill:#ffffff;fill-opacity:1;fill-rule:nonzero;stroke:none;font-family:Gotham HTF;font-variant:normal;font-weight:300;font-stretch:condensed;font-size:22.30669999999999931;writing-mode:lr;-inkscape-font-specification:Gotham HTF"
         x="0 7.0935306 13.6963138 20.9459913 29.0656301 36.4937612 40.1743667 52.9114924 62.0572394 68.3923422 76.6458212 80.3264267 89.3829469 98.7517609 102.4323664 109.0351496 118.3147368 125.5644143 129.2450198 136.3385504 141.9375321 151.0832791 154.8754181 163.4188842"
         y="0"
         sodipodi:role="line"
         id="tspan52">STEPS WALK ON THE STAIRS</tspan></text>
<text
       transform="matrix(1,0,0,-1,52.8477,143.6904)"
       id="text54"><tspan
         style="fill:#ffffff;fill-opacity:1;fill-rule:nonzero;stroke:none;font-family:Idlewild Bold;font-variant:normal;font-weight:bold;font-stretch:normal;font-size:8.4807;writing-mode:lr;-inkscape-font-specification:Idlewild-Bold"
         x="-10"
         y="0"
         sodipodi:role="line"
         id="tspan56">TODAY — </tspan>
     <tspan
         style="fill:#ffffff;fill-opacity:1;fill-rule:nonzero;stroke:none;font-family:Idlewild Bold;font-variant:normal;font-weight:bold;font-stretch:normal;font-size:8.4807;writing-mode:lr;-inkscape-font-specification:Idlewild-Bold"
         x="64"
         y="0"
         sodipodi:role="line"
         id="date">05:34:45</tspan></text>
<text
       transform="matrix(1,0,0,-1,52.3745,98.4116)"
       style="fill:#ffffff;fill-opacity:1;fill-rule:nonzero;stroke:none;font-family:TSTAR PRO Headline;font-variant:normal;font-weight:900;font-stretch:normal;font-size:47.8273;writing-mode:lr;-inkscape-font-specification:TSTARPRO-Headline"
       text-anchor="middle"
       x="63"
       y="0"
       sodipodi:role="line"
       id="value">0</text>
<text
       transform="matrix(1,0,0,-1,79.958,189.6084)"
       style="fill:#ffffff;fill-opacity:1;fill-rule:nonzero;stroke:none;font-family:TSTAR PRO Headline;font-variant:normal;font-weight:900;font-stretch:normal;font-size:26.994;writing-mode:lr;-inkscape-font-specification:TSTARPRO-Headline"
       text-anchor="middle"
       x="37"
       y="0"
       sodipodi:role="line"
       id="previous">0</text>
<path
       d="m 0,0 230,0 0,43.006 -230,0 L 0,0 z"
       style="fill:#2b2b2a;fill-opacity:1;fill-rule:nonzero;stroke:none"
       id="path66" /><g
       id="g68"><g
         id="g70"
         clip-path="url(#clipPath72)"><text
           transform="matrix(1,0,0,-1,30.5029,-17.3032)"
           style="fill:#ffffff;fill-opacity:1;fill-rule:nonzero;stroke:none;font-family:TSTAR PRO Headline;font-variant:normal;font-weight:900;font-stretch:normal;font-size:64.4316;writing-mode:lr;-inkscape-font-specification:TSTARPRO-Headline"
           text-anchor="middle"
           x="86"
           y="0"
           sodipodi:role="line"
           id="next">0</text>
</g></g><g
       id="g80"><g
         id="g82"
         clip-path="url(#clipPath84)"><path
           d="M 230,0 0,0 l 0,43.006 230,0 L 230,0 z"
           style="fill:none;stroke:#2b2b2a;stroke-opacity:1;stroke-width:2;stroke-linecap:butt;stroke-linejoin:miter;stroke-miterlimit:10;stroke-dasharray:none"
           id="path88" /></g></g></g></svg>
