<?xml version="1.0" encoding="UTF-8" standalone="no"?>
<!-- Created with Inkscape (http://www.inkscape.org/) -->

<svg
   xmlns:dc="http://purl.org/dc/elements/1.1/"
   xmlns:cc="http://creativecommons.org/ns#"
   xmlns:rdf="http://www.w3.org/1999/02/22-rdf-syntax-ns#"
   xmlns:svg="http://www.w3.org/2000/svg"
   xmlns="http://www.w3.org/2000/svg"
   xmlns:sodipodi="http://sodipodi.sourceforge.net/DTD/sodipodi-0.dtd"
   xmlns:inkscape="http://www.inkscape.org/namespaces/inkscape"
   id="svg2"
   version="1.1"
   inkscape:version="0.48.5 r10040"
   width="287.5"
   height="317.5"
   xml:space="preserve"
   sodipodi:docname="Widgets_cs6_clean_V2.ai"><metadata
     id="metadata8"><rdf:RDF><cc:Work
         rdf:about=""><dc:format>image/svg+xml</dc:format><dc:type
           rdf:resource="http://purl.org/dc/dcmitype/StillImage" /><dc:title></dc:title></cc:Work></rdf:RDF></metadata><defs
     id="defs6"><clipPath
       clipPathUnits="userSpaceOnUse"
       id="clipPath30"><path
         d="M 0,254 230,254 230,0 0,0 0,254 z"
         id="path32" /></clipPath></defs><sodipodi:namedview
     pagecolor="#ffffff"
     bordercolor="#666666"
     borderopacity="1"
     objecttolerance="10"
     gridtolerance="10"
     guidetolerance="10"
     inkscape:pageopacity="0"
     inkscape:pageshadow="2"
     inkscape:window-width="640"
     inkscape:window-height="480"
     id="namedview4"
     showgrid="false"
     inkscape:zoom="0.74330709"
     inkscape:cx="143.75"
     inkscape:cy="158.75"
     inkscape:window-x="595"
     inkscape:window-y="276"
     inkscape:window-maximized="0"
     inkscape:current-layer="g10" /><g
     id="g10"
     inkscape:groupmode="layer"
     inkscape:label="Widgets_cs6_clean_V2"
     transform="matrix(1.25,0,0,-1.25,0,317.5)"><text
       transform="matrix(1,0,0,-1,89.7109,232.2158)"
       id="text12"><tspan
         style="fill:#2b2b2a;fill-opacity:1;fill-rule:nonzero;stroke:none;font-family:Idlewild Bold;font-variant:normal;font-weight:bold;font-stretch:normal;font-size:8.4807;writing-mode:lr;-inkscape-font-specification:Idlewild-Bold"
         x="0"
         y="0"
         sodipodi:role="line"
         id="tspan14">TODAY</tspan><tspan
         style="fill:#2b2b2a;fill-opacity:1;fill-rule:nonzero;stroke:none;font-family:Idlewild Bold;font-variant:normal;font-weight:bold;font-stretch:normal;font-size:8.4807;writing-mode:lr;-inkscape-font-specification:Idlewild-Bold"
         x="-8.9810613"
         y="10.17684"
         sodipodi:role="line"
         id="date">05:34:45</tspan></text>
<text
       transform="matrix(1,0,0,-1,70.0479,165.1992)"
       style="fill:#2b2b2a;fill-opacity:1;fill-rule:nonzero;stroke:none;font-family:TSTAR PRO Headline;font-variant:normal;font-weight:900;font-stretch:normal;font-size:56.9379;writing-mode:lr;-inkscape-font-specification:TSTARPRO-Headline"
       text-anchor="middle"
       x="46.5"
       y="0"
       sodipodi:role="line"
       id="value">0</text>
<text
       transform="matrix(1,0,0,-1,29.9404,134.4199)"
       id="text22"><tspan
         style="fill:#1d1d1d;fill-opacity:1;fill-rule:nonzero;stroke:none;font-family:Gotham HTF;font-variant:normal;font-weight:300;font-stretch:condensed;font-size:26.55679999999999907;writing-mode:lr;-inkscape-font-specification:Gotham HTF"
         x="0 10.4102656 14.9249216 23.768336 28.282992 35.6126688 46.3947296 56.565984 65.4093984 69.7912704 80.5733312 91.7271872 96.1090592 103.969872 115.0175008 119.5321568 128.3755712 132.7574432 140.9634944 151.0550784 161.4919008"
         y="0"
         sodipodi:role="line"
         id="tspan24">VISITORS ON THIS PAGE</tspan></text>
<g
       id="g26"><g
         id="g28"
         clip-path="url(#clipPath30)"><g
           id="g34"
           transform="translate(141.3154,34.124)"><path
             d="m 0,0 1.183,-7.061 -35.332,-5.923 c -0.394,2.357 -1.659,9.893 4.239,10.881 L -29.435,-4.936 0,0 z"
             style="fill:#2b2b2a;fill-opacity:1;fill-rule:nonzero;stroke:none"
             id="path36" /></g><g
           id="g38"
           transform="translate(141.3154,34.124)"><path
             d="m 0,0 1.183,-7.061 -35.332,-5.923 c -0.394,2.357 -1.659,9.893 4.239,10.881 L -29.435,-4.936 0,0 z"
             style="fill:none;stroke:#2b2b2a;stroke-opacity:1;stroke-width:1.801;stroke-linecap:butt;stroke-linejoin:miter;stroke-miterlimit:10;stroke-dasharray:none"
             id="path40" /></g><g
           id="g42"
           transform="translate(127.8008,39.7354)"><path
             d="m 0,0 c -2.838,16.931 -14.558,15.344 -14.558,15.344 l -4.424,-0.158 -9.414,4.661 c -7.677,8.849 -10.703,14.724 -18.527,9.107 l 9.431,-12.697 c 0,0 7.2,-10.226 11.929,-15.541 3.848,-4.328 8.791,-3.479 8.791,-3.479 l 1.203,-7.179 28.991,4.86 0.548,21.13 1.394,28.286 c 1.038,6.019 -5.693,7.812 -6.894,1.035 L 7.123,35.979 3.67,35.651 3.841,55.553 c -0.572,6.916 -6.71,6.91 -6.988,-0.149 l 0.043,-21.179 -3.41,-0.572 -3.056,25.202 c -1.144,6.823 -7.774,4.542 -6.822,-1.143 l 3.015,-24.956 -4.554,-0.725 -3.764,22.454 c -1.334,7.959 -9.292,6.624 -7.958,-1.335 l 5.909,-35.243"
             style="fill:none;stroke:#2b2b2a;stroke-opacity:1;stroke-width:2;stroke-linecap:butt;stroke-linejoin:miter;stroke-miterlimit:10;stroke-dasharray:none"
             id="path44" /></g><g
           id="g46"
           transform="translate(84.1963,98.6357)"><path
             d="M 0,0 C 0,9.961 8.074,18.032 18.034,18.032"
             style="fill:none;stroke:#2b2b2a;stroke-opacity:1;stroke-width:2;stroke-linecap:butt;stroke-linejoin:miter;stroke-miterlimit:10;stroke-dasharray:none"
             id="path48" /></g><g
           id="g50"
           transform="translate(140.749,96.8906)"><path
             d="M 0,0 C 6.563,-0.147 11.761,-5.59 11.609,-12.15"
             style="fill:none;stroke:#2b2b2a;stroke-opacity:1;stroke-width:2;stroke-linecap:butt;stroke-linejoin:miter;stroke-miterlimit:10;stroke-dasharray:none"
             id="path52" /></g><g
           id="g54"
           transform="translate(77.6377,47.5303)"><path
             d="M 0,0 C 3.074,-4.994 15.576,-14.602 15.576,-14.602"
             style="fill:none;stroke:#2b2b2a;stroke-opacity:1;stroke-width:2;stroke-linecap:butt;stroke-linejoin:miter;stroke-miterlimit:10;stroke-dasharray:none"
             id="path56" /></g></g></g></g></svg>
