<?xml version="1.0" encoding="UTF-8" standalone="no"?>
<!-- Created with Inkscape (http://www.inkscape.org/) -->

<svg
   xmlns:dc="http://purl.org/dc/elements/1.1/"
   xmlns:cc="http://creativecommons.org/ns#"
   xmlns:rdf="http://www.w3.org/1999/02/22-rdf-syntax-ns#"
   xmlns:svg="http://www.w3.org/2000/svg"
   xmlns="http://www.w3.org/2000/svg"
   version="1.1"
   width="238.1125"
   height="363.07126"
   id="svg2"
   xml:space="preserve"><metadata
     id="metadata8"><rdf:RDF><cc:Work
         rdf:about=""><dc:format>image/svg+xml</dc:format><dc:type
           rdf:resource="http://purl.org/dc/dcmitype/StillImage" /><dc:title></dc:title></cc:Work></rdf:RDF></metadata><defs
     id="defs6"><clipPath
       id="clipPath30"><path
         d="m 0,290.457 190.49,0 L 190.49,0 0,0 0,290.457 z"
         id="path32" /></clipPath></defs><g
     transform="matrix(1.25,0,0,-1.25,0,363.07125)"
     id="g10"><text
       transform="matrix(1,0,0,-1,79.0752,252.2314)"
       id="text12"><tspan
         x="0 9.7867279 20.965139 31.108055 40.818459"
         y="0"
         id="tspan14"
         style="font-size:8.48069954px;font-variant:normal;font-weight:bold;font-stretch:normal;writing-mode:lr-tb;fill:#2b2b2a;fill-opacity:1;fill-rule:nonzero;stroke:none;font-family:Idlewild Bold;-inkscape-font-specification:Idlewild-Bold">TODAY</tspan></text>
<text
       x="106"
       y="-201.81462"
       text-anchor="middle"
       transform="scale(1,-1)"
       id="value"
       style="font-size:56.93790054px;font-variant:normal;font-weight:900;font-stretch:normal;writing-mode:lr-tb;fill:#2b2b2a;fill-opacity:1;fill-rule:nonzero;stroke:none;font-family:TSTAR PRO Headline;-inkscape-font-specification:TSTARPRO-Headline">0</text>
<text
       transform="matrix(1,0,0,-1,71.6416,165.7744)"
       id="text20"><tspan
         x="0 10.410266 14.924922 23.768335 28.282991 35.612667 46.39473 56.565983"
         y="0"
         id="tspan22"
         style="font-size:26.55680084px;font-variant:normal;font-weight:300;font-stretch:condensed;writing-mode:lr-tb;fill:#2b2b2a;fill-opacity:1;fill-rule:nonzero;stroke:none;font-family:Gotham HTF Light Condensed;-inkscape-font-specification:GothamHTF-LightCondensed">VISITORS</tspan><tspan
         x="-17.447817 -6.6657567 4.4880991 8.8699713 16.730783 27.778412 32.293068 41.136482 45.518356 53.724407 63.81599 74.252815"
         y="24.671267"
         id="tspan24"
         style="font-size:26.55680084px;font-variant:normal;font-weight:300;font-stretch:condensed;writing-mode:lr-tb;fill:#2b2b2a;fill-opacity:1;fill-rule:nonzero;stroke:none;font-family:Gotham HTF Light Condensed;-inkscape-font-specification:GothamHTF-LightCondensed">ON THIS PAGE</tspan></text>
<g
       id="g26"><g
         clip-path="url(#clipPath30)"
         id="g28"><g
           transform="translate(123.931,57.5196)"
           id="g34"><path
             d="m 0,0 1.027,-6.125 -30.651,-5.139 c -0.342,2.045 -1.438,8.581 3.678,9.439 L -25.534,-4.281 0,0 z"
             id="path36"
             style="fill:#2b2b2a;fill-opacity:1;fill-rule:nonzero;stroke:none" /></g><g
           transform="translate(123.931,57.5196)"
           id="g38"><path
             d="m 0,0 1.027,-6.125 -30.651,-5.139 c -0.342,2.045 -1.438,8.581 3.678,9.439 L -25.534,-4.281 0,0 z"
             id="path40"
             style="fill:none;stroke:#2b2b2a;stroke-width:1.801;stroke-linecap:butt;stroke-linejoin:miter;stroke-miterlimit:10;stroke-opacity:1;stroke-dasharray:none" /></g><g
           transform="translate(112.2077,62.3867)"
           id="g42"><path
             d="m 0,0 c -2.462,14.688 -12.629,13.31 -12.629,13.31 l -3.838,-0.136 -8.166,4.043 c -6.66,7.678 -9.285,12.773 -16.072,7.899 l 8.181,-11.012 c 0,0 6.245,-8.872 10.347,-13.483 3.339,-3.754 7.627,-3.017 7.627,-3.017 l 1.044,-6.23 25.149,4.217 0.476,18.331 1.209,24.537 c 0.9,5.221 -4.938,6.777 -5.981,0.898 L 6.178,31.211 3.184,30.928 3.332,48.19 C 2.836,54.191 -2.49,54.186 -2.73,48.062 l 0.038,-18.373 -2.959,-0.496 -2.651,21.864 c -0.992,5.917 -6.744,3.938 -5.918,-0.993 l 2.616,-21.649 -3.951,-0.628 -3.265,19.478 c -1.157,6.904 -8.061,5.746 -6.904,-1.158 l 5.126,-30.573"
             id="path44"
             style="fill:none;stroke:#2b2b2a;stroke-width:2;stroke-linecap:butt;stroke-linejoin:miter;stroke-miterlimit:10;stroke-opacity:1;stroke-dasharray:none" /></g><g
           transform="translate(74.3815,113.4815)"
           id="g46"><path
             d="M 0,0 C 0,8.641 7.004,15.644 15.644,15.644"
             id="path48"
             style="fill:none;stroke:#2b2b2a;stroke-width:2;stroke-linecap:butt;stroke-linejoin:miter;stroke-miterlimit:10;stroke-opacity:1;stroke-dasharray:none" /></g><g
           transform="translate(123.4402,111.9688)"
           id="g50"><path
             d="M 0,0 C 5.693,-0.13 10.202,-4.85 10.071,-10.542"
             id="path52"
             style="fill:none;stroke:#2b2b2a;stroke-width:2;stroke-linecap:butt;stroke-linejoin:miter;stroke-miterlimit:10;stroke-opacity:1;stroke-dasharray:none" /></g><g
           transform="translate(68.6922,69.1485)"
           id="g54"><path
             d="M 0,0 C 2.667,-4.333 13.511,-12.667 13.511,-12.667"
             id="path56"
             style="fill:none;stroke:#2b2b2a;stroke-width:2;stroke-linecap:butt;stroke-linejoin:miter;stroke-miterlimit:10;stroke-opacity:1;stroke-dasharray:none" /></g></g></g></g></svg>