<?xml version="1.0" encoding="UTF-8" standalone="no"?>
<!-- Created with Inkscape (http://www.inkscape.org/) -->

<svg
   xmlns:dc="http://purl.org/dc/elements/1.1/"
   xmlns:cc="http://creativecommons.org/ns#"
   xmlns:rdf="http://www.w3.org/1999/02/22-rdf-syntax-ns#"
   xmlns:svg="http://www.w3.org/2000/svg"
   xmlns="http://www.w3.org/2000/svg"
   version="1.1"
   width="515.59875"
   height="364.39374"
   id="svg2"
   xml:space="preserve"><metadata
     id="metadata8"><rdf:RDF><cc:Work
         rdf:about=""><dc:format>image/svg+xml</dc:format><dc:type
           rdf:resource="http://purl.org/dc/dcmitype/StillImage" /><dc:title></dc:title></cc:Work></rdf:RDF></metadata><defs
     id="defs6"><clipPath
       id="clipPath36"><path
         d="m 0,291.515 412.479,0 L 412.479,0 0,0 0,291.515 z"
         id="path38" /></clipPath></defs><g
     transform="matrix(1.25,0,0,-1.25,0,364.39375)"
     id="g10"><text
       transform="matrix(1,0,0,-1,75.5811,237.27)"
       id="text12"><tspan
         x="0 9.7867279 20.965139 31.108055 40.818459"
         y="0"
         id="tspan14"
         style="font-size:8.48069954px;font-variant:normal;font-weight:bold;font-stretch:normal;writing-mode:lr-tb;fill:#2b2b2a;fill-opacity:1;fill-rule:nonzero;stroke:none;font-family:Idlewild Bold;-inkscape-font-specification:Idlewild-Bold">TODAY</tspan></text>
<text
       x="103"
       y="-185.47971"
       text-anchor="middle"
       transform="scale(1,-1)"
       id="value"
       style="font-size:56.93790054px;font-variant:normal;font-weight:900;font-stretch:normal;writing-mode:lr-tb;fill:#2b2b2a;fill-opacity:1;fill-rule:nonzero;stroke:none;font-family:TSTAR PRO Headline;-inkscape-font-specification:TSTARPRO-Headline">0</text>
<text
       transform="matrix(1,0,0,-1,77.0703,150.8091)"
       id="text20"><tspan
         x="0 7.5421314 12.056787 19.917601 28.548559 38.719814"
         y="0"
         id="tspan22"
         style="font-size:26.55680084px;font-variant:normal;font-weight:300;font-stretch:condensed;writing-mode:lr-tb;fill:#2b2b2a;fill-opacity:1;fill-rule:nonzero;stroke:none;font-family:Gotham HTF Light Condensed;-inkscape-font-specification:GothamHTF-LightCondensed">LITERS</tspan><tspan
         x="14.314116 25.096176"
         y="24.671267"
         id="tspan24"
         style="font-size:26.55680084px;font-variant:normal;font-weight:300;font-stretch:condensed;writing-mode:lr-tb;fill:#2b2b2a;fill-opacity:1;fill-rule:nonzero;stroke:none;font-family:Gotham HTF Light Condensed;-inkscape-font-specification:GothamHTF-LightCondensed">OF</tspan><tspan
         x="-13.172173 -5.3113599 5.4707007 16.332432 27.486288 34.152046 45.040333 49.554989"
         y="49.342533"
         id="tspan26"
         style="font-size:26.55680084px;font-variant:normal;font-weight:300;font-stretch:condensed;writing-mode:lr-tb;fill:#2b2b2a;fill-opacity:1;fill-rule:nonzero;stroke:none;font-family:Gotham HTF Light Condensed;-inkscape-font-specification:GothamHTF-LightCondensed">FOUNTAIN</tspan><tspan
         x="-1.99176 13.172173 22.865404 30.726217 39.357178"
         y="74.013802"
         id="tspan28"
         style="font-size:26.55680084px;font-variant:normal;font-weight:300;font-stretch:condensed;writing-mode:lr-tb;fill:#2b2b2a;fill-opacity:1;fill-rule:nonzero;stroke:none;font-family:Gotham HTF Light Condensed;-inkscape-font-specification:GothamHTF-LightCondensed">WATER</tspan><tspan
         x="-2.4963391 8.1263809 18.164852 29.026583 40.180439"
         y="98.685066"
         id="tspan30"
         style="font-size:26.55680084px;font-variant:normal;font-weight:300;font-stretch:condensed;writing-mode:lr-tb;fill:#2b2b2a;fill-opacity:1;fill-rule:nonzero;stroke:none;font-family:Gotham HTF Light Condensed;-inkscape-font-specification:GothamHTF-LightCondensed">DRUNK</tspan></text>
<g
       id="g32"><g
         clip-path="url(#clipPath36)"
         id="g34"><g
           transform="translate(314.601,188.646)"
           id="g40"><path
             d="m 0,0 c -11.305,0 -22.85,-4.201 -34.566,-4.201 -11.721,0 -15.586,3.053 -25.545,3.053 -9.959,0 -14.882,-3.053 -27.186,-3.053 -9.9,0 -13.878,1.205 -21.849,4.075 l 0,-115.9 44.939,0 8.199,-17.426 15.819,0 7.143,17.426 44.351,0 0,115.08 C 8.353,-0.433 4.559,0 0,0"
             id="path42"
             style="fill:#2b2b2a;fill-opacity:1;fill-rule:nonzero;stroke:none" /></g><g
           transform="translate(279.3802,55.409)"
           id="g44"><path
             d="m 0,0 5.5,10.2 40.9,0 c 5.9,0 7.2,8.3 7.3,9.1 l 0,49.8 -2.7,0 0.6,1.4 c 0,0.1 2.1,5.3 2.1,12.2 l 0,41.4 -2.9,0 0.7,1.4 c 0,0 2.2,4.7 2.2,10.4 l 0,46 c 0,3.9 -2.8,6.2 -7.3,6.2 l -119.4,0 c -2.5,0 -4.5,-0.7 -5.7,-2 -1,-1.1 -1.5,-2.5 -1.5,-4.2 l 0,-45.9 c 0,-5.7 2.2,-10.3 2.2,-10.4 l 0.7,-1.4 -2.9,0 0,-41.5 c 0,-6.9 2.1,-12.2 2.1,-12.2 l 0.6,-1.4 -2.7,0 0,-49.9 c 0.1,-0.8 1.4,-9.1 7.3,-9.1 l 41,0 5.5,-10.2"
             id="path46"
             style="fill:none;stroke:#2b2b2a;stroke-width:1.5;stroke-linecap:butt;stroke-linejoin:miter;stroke-miterlimit:4;stroke-opacity:1;stroke-dasharray:none" /></g><g
           transform="translate(199.1802,37.509)"
           id="g48"><path
             d="m 0,0 0,17.8 134,0 0,-17.8"
             id="path50"
             style="fill:none;stroke:#2b2b2a;stroke-width:1.5;stroke-linecap:butt;stroke-linejoin:miter;stroke-miterlimit:4;stroke-opacity:1;stroke-dasharray:none" /></g></g></g></g></svg>