<?xml version="1.0" encoding="UTF-8" standalone="no"?>
<!-- Created with Inkscape (http://www.inkscape.org/) -->

<svg
   xmlns:dc="http://purl.org/dc/elements/1.1/"
   xmlns:cc="http://creativecommons.org/ns#"
   xmlns:rdf="http://www.w3.org/1999/02/22-rdf-syntax-ns#"
   xmlns:svg="http://www.w3.org/2000/svg"
   xmlns="http://www.w3.org/2000/svg"
   xmlns:sodipodi="http://sodipodi.sourceforge.net/DTD/sodipodi-0.dtd"
   xmlns:inkscape="http://www.inkscape.org/namespaces/inkscape"
   id="svg2"
   version="1.1"
   inkscape:version="0.48.5 r10040"
   width="287.5"
   height="390.24375"
   xml:space="preserve"
   sodipodi:docname="Widgets_cs6_clean_V2.ai"><metadata
     id="metadata8"><rdf:RDF><cc:Work
         rdf:about=""><dc:format>image/svg+xml</dc:format><dc:type
           rdf:resource="http://purl.org/dc/dcmitype/StillImage" /><dc:title></dc:title></cc:Work></rdf:RDF></metadata><defs
     id="defs6"><clipPath
       clipPathUnits="userSpaceOnUse"
       id="clipPath16"><path
         d="m 0,312.195 230,0 L 230,0 0,0 0,312.195 z"
         id="path18" /></clipPath></defs><sodipodi:namedview
     pagecolor="#ffffff"
     bordercolor="#666666"
     borderopacity="1"
     objecttolerance="10"
     gridtolerance="10"
     guidetolerance="10"
     inkscape:pageopacity="0"
     inkscape:pageshadow="2"
     inkscape:window-width="1855"
     inkscape:window-height="1056"
     id="namedview4"
     showgrid="false"
     inkscape:zoom="0.60475025"
     inkscape:cx="143.75"
     inkscape:cy="195.12187"
     inkscape:window-x="65"
     inkscape:window-y="24"
     inkscape:window-maximized="1"
     inkscape:current-layer="g10" /><g
     id="g10"
     inkscape:groupmode="layer"
     inkscape:label="Widgets_cs6_clean_V2"
     transform="matrix(1.25,0,0,-1.25,0,390.24375)"><g
       id="g12"><g
         id="g14"
         clip-path="url(#clipPath16)"><g
           id="g20"
           transform="translate(177.0278,264.8696)"><path
             d="m 0,0 c -14.485,0 -29.277,-5.383 -44.29,-5.383 -15.017,0 -19.969,3.911 -32.73,3.911 -12.76,0 -19.067,-3.911 -34.832,-3.911 -12.685,0 -29.121,1.544 -39.335,5.221 l 0,-228.579 68.919,0 10.505,-22.327 20.269,0 9.153,22.327 68.164,0 0,227.529 C 22.041,-0.555 5.841,0 0,0"
             style="fill:#2b2b2a;fill-opacity:1;fill-rule:nonzero;stroke:none"
             id="path22" /></g><g
           id="g24"
           transform="translate(131.8999,14.0767)"><path
             d="m 0,0 7.047,13.069 63.743,0 c 7.56,0 9.225,10.635 9.354,11.66 l 0,78.332 -3.459,0 0.768,1.794 c 0,0.128 2.691,6.791 2.691,15.632 l 0,67.573 -3.716,0 0.897,1.794 c 0,0 2.819,6.022 2.819,13.326 l 0,73.467 c 0,4.997 -3.588,7.943 -9.354,7.943 l -175.663,0 c -3.203,0 -5.765,-0.896 -7.303,-2.562 -1.281,-1.409 -1.922,-3.203 -1.922,-5.381 l 0,-73.339 c 0,-7.304 2.819,-13.197 2.819,-13.326 l 0.897,-1.793 -3.716,0 0,-67.702 c 0,-8.841 2.69,-15.632 2.69,-15.632 l 0.77,-1.794 -3.46,0 0,-78.46 c 0.128,-1.025 1.794,-11.661 9.353,-11.661 l 63.871,0 7.048,-13.068"
             style="fill:none;stroke:#2b2b2a;stroke-opacity:1;stroke-width:1.5;stroke-linecap:butt;stroke-linejoin:miter;stroke-miterlimit:4;stroke-dasharray:none"
             id="path26" /></g><g
           id="g28"
           transform="translate(29.1411,5.6694)"><path
             d="m 0,0 0,8.279 171.691,0 0,-8.279"
             style="fill:none;stroke:#2b2b2a;stroke-opacity:1;stroke-width:1.5;stroke-linecap:butt;stroke-linejoin:miter;stroke-miterlimit:4;stroke-dasharray:none"
             id="path30" /></g></g></g><text
       transform="matrix(1,0,0,-1,89.7109,235.377)"
       id="text32"><tspan
         style="fill:#ffffff;fill-opacity:1;fill-rule:nonzero;stroke:none;font-family:Idlewild Bold;font-variant:normal;font-weight:bold;font-stretch:normal;font-size:8.4807;writing-mode:lr;-inkscape-font-specification:Idlewild-Bold"
         x="0"
         y="0"
         sodipodi:role="line"
         id="tspan34">TODAY</tspan><tspan
         style="fill:#ffffff;fill-opacity:1;fill-rule:nonzero;stroke:none;font-family:Idlewild Bold;font-variant:normal;font-weight:bold;font-stretch:normal;font-size:8.4807;writing-mode:lr;-inkscape-font-specification:Idlewild-Bold"
         x="-8.3789316"
         y="10.17684"
         sodipodi:role="line"
         id="date">05:34:23</tspan></text>
<text
       transform="matrix(1,0,0,-1,100.2246,162.6875)"
       style="fill:#ffffff;fill-opacity:1;fill-rule:nonzero;stroke:none;font-family:TSTAR PRO Headline;font-variant:normal;font-weight:900;font-stretch:normal;font-size:56.9379;writing-mode:lr;-inkscape-font-specification:TSTARPRO-Headline"
       text-anchor="middle"
       x="15"
       y="0"
       id="value">0</text>
<text
       transform="matrix(1,0,0,-1,79.5742,131.9082)"
       id="text42"><tspan
         style="fill:#ffffff;fill-opacity:1;fill-rule:nonzero;stroke:none;font-family:Gotham HTF;font-variant:normal;font-weight:300;font-stretch:condensed;font-size:26.55679999999999907;writing-mode:lr;-inkscape-font-specification:Gotham HTF"
         x="0"
         y="0"
         sodipodi:role="line"
         id="tspan44">LITERS OF</tspan><tspan
         style="fill:#ffffff;fill-opacity:1;fill-rule:nonzero;stroke:none;font-family:Gotham HTF;font-variant:normal;font-weight:300;font-stretch:condensed;font-size:26.55679999999999907;writing-mode:lr;-inkscape-font-specification:Gotham HTF"
         x="-1.5137376"
         y="24.671267"
         sodipodi:role="line"
         id="tspan46">FOUNTAIN</tspan><tspan
         style="fill:#ffffff;fill-opacity:1;fill-rule:nonzero;stroke:none;font-family:Gotham HTF;font-variant:normal;font-weight:300;font-stretch:condensed;font-size:26.55679999999999907;writing-mode:lr;-inkscape-font-specification:Gotham HTF"
         x="-18.7756576"
         y="49.342534"
         sodipodi:role="line"
         id="tspan48">WATER DRUNK</tspan></text>
</g></svg>
